<svg xmlns="http://www.w3.org/2000/svg" width="360" height="334.99" viewBox="0 0 360 334.99">
  <path fill="#FBA919" d="M67.892 81.42s5.737 22.126 6.555 29.503c.82 7.375-14.75 23.765-14.75 31.96 0 8.197 3.273 22.948 21.305 30.325 18.032 7.376 20.488 26.224 20.488 37.7 0 11.473-6.555 33.598-6.555 33.598s-4.096 54.908 18.03 64.742c22.124 9.833 17.21 9.833 22.124 9.833 4.91 0 40.97 14.76 62.28 9.02 21.31-5.73 27.04-12.29 27.04-12.29s21.31 1.64 27.86-17.21c6.56-18.84 10.65-58.18 8.19-76.21-2.46-18.03-5.74-41.79 9.01-49.99 14.75-8.19 30.32-18.03 27.86-26.22-2.46-8.19-15.57-19.67-15.57-19.67s-3.28-20.48-.83-25.4c2.46-4.91 17.21-17.21 9.01-26.22-8.19-9.01-22.95-9.01-22.95-9.01l-18.84 1.63S216.2 38.82 174.4 40.46c-41.77 1.64-68 27.04-68 27.04s-13.93-4.918-26.223 0c-12.3 4.92-14.75 0-12.29 13.93z"/>
  <path fill="#E78724" d="M142.775 203.437s-16.23 24.815-28.133 42.425c-1.842 2.724 11.904 2.913 11.904 2.913l16.23-45.338zm7.727-51.447s-4.892 12.204-7.572 18.674c-2.91 7.034-14 10.533-14 10.533s5.75-6.03 5.75-21.306c0-6.4 8.273-8.95 8.273-8.95l7.55 1.06z"/>
  <path fill="#E78724" d="M145.56 158.89s-10.023 11.93-28.633 5.25c-18.614-6.68-20.522-30.546-20.522-37.228 0-6.682 35.317 6.682 40.09 9.546s13.837 14.317 9.065 22.432zM75.26 31.4s17.18-3.344 28.634 5.725c11.458 9.067 14.794 16.228 14.794 16.228L99.383 68.656S90.055 64.33 87.19 51.92c-2.862-12.408-.953-18.134-11.93-20.52z"/>
  <path fill="#E78724" d="M140.55 124.427c-7.398-10.5-19.588-15.08-29.32-15.84-16.597-1.297-24.476 4.57-24.476 4.57s27.18 1.15 35.014 11.44c14.584 19.15 35.86 20.706 39.262 16.5-3.934.196-8.262-1.753-12.894-6.133-2.894-2.74-5.24-7.204-7.587-10.537zm-45.884 37.127S64.51 151.187 70.24 140.69c5.727-10.502 1.17-16.223 1.17-16.223s-16.84 12.57-12.55 25.932c2.638 8.2 7.062 14.14 31.355 25.52 11.652 21.64 2.406 60.6 2.96 60.78.923.3 16.36-7.63 15.306-44.08-.32-11.2-1.21-26.47-13.81-31.08zm39.518-111.48c-12.645 6.424-29.968 15.37-29.968 15.37l6.818 3.41c-.65 1.055-.965 1.684-.965 1.684l6.99 3.182s17.08 12.375 27.55 20.33c-3.49-10.745-13.74-27.627-13.74-27.627s-2.91-7.757 3.3-16.35zm42.006 261.86c-38.865 0-52.03-19.73-52.03-19.73l6.074 14.79c2.296 6.4 26.788 26.31 45.898 26.31"/>
  <path fill="#E78724" d="M128.42 278.87s3.575 21.855 17.893 21.855c12.167 0 15.752-18.46 15.752-22.275l-33.646.42zm-23.828-32.958c1.272-3.502 5.726-17.66 7.157-30.545 1.71-15.432 1.09-38.003 1.09-38.003s-3.82 14.795-7.17 17.186c-3.34 2.385-9.55 18.61-9.55 18.61s-3.33 24.156-4.91 32.275c4.38.877 8.06-1.703 13.36.477zm-34.576-95.75s8.11-2.866 10.5-20.522c2.385-17.66-2.866-32.932-2.866-32.932s.477 24.34-2.385 29.114c-2.866 4.77-5.25 6.203-8.592 12.41-3.343 6.206 1.43 10.02 3.343 11.93z"/>
  <path fill="#FDC168" d="M79.7 35.576l-1.655-1.05c-4.883.166 1.656 1.05 1.656 1.05z"/>
  <path fill="#FBA919" d="M140.786 44.846s-7.634-1.272-11.454-6.998c-3.82-5.728-14.636-17.184-31.88-17.312-17.24-.13-34.3 4.583-34.3 4.583l14.89 9.4c1.576-.05 4.33-.03 8.884.12 18.688.62 21.565 19.1 21.565 19.1l65.87-9.07"/>
  <path fill="#FFF" d="M147.15 146.942s-8.91 8.91-22.592 6.044c-13.683-2.862-21.957-8.908-22.593-19.41-.636-10.5 2.866-14.635 2.866-14.635s15.28 4.78 22.6 11.14c7.32 6.37 12.73 16.55 19.73 16.87z"/>
  <path fill="#C9C9C9" d="M136.368 143.76s-7.727 3.53-16.364.654c-11.306-3.77-12.06-15.53-12.06-15.53s-6.935 20.355 12.51 24.273c15.598 3.142 24.822-5.896 24.822-5.896l-8.908-3.5z"/>
  <path fill="#463014" d="M141.86 40.528c-.832-17.456 13.478-31.36 18.436-31.95.274 2.957-.276 14.495 4.68 18.043C166.42 17.2 171.3 6.81 190.57 0c-4.127 10.946-.55 20.115 1.152 24.365 13.16-11.944 22.025-9.97 22.025-9.97s-9.143 15.777-5.567 26.13c-26.416-2.072-66.192 2.806-66.32.003zm-56.003 26.59c-6.303-5.23-1.605-10.083-2.103-16.024-.27-3.16-.52-6.144-1.563-7.79-5.8-9.158-19.48-11.937-19.62-11.966l-6.42-1.258 4.25-4.973c.55-.644 18.01-17.3 45.03-8.58 18.9 6.096 32.89 26.764 33.41 27.6l-9.47 4.455c-.11-.176-11.17-19.603-27.38-24.83-13.1-4.23-25.18-.207-30.36 2.43 5.5 2.196 12.69 6.195 17.03 13.036 2.05 3.23 2.39 7.3 2.72 11.238.44 5.215.85 10.138 4.69 13.326l-10.2 3.335zM69.023 143.45s7.94-9.847 10.293-29.008c.924-7.547-.717-22.433-3.343-28.16.477 14.08-3.102 28.16-3.102 28.16s-2.41 26.144-3.84 29.008z"/>
  <path fill="#463014" d="M110.896 57.172c-.004-.02-2.548-11.138-9.6-16.75-9.95-7.914-22.098-3.704-22.215-3.667l-1.76-5.45c.59-.19 14.48-4.565 27.27 4.43 12.87 9.046 14.42 17.246 14.55 18.152l-8.24 3.285zm-16.932 79.216s-4.166-5.964-3.417-12.523c.373-3.24 1.874-6.564 4.554-7.744 4.98-2.18 7.19 3.46 7.19 3.46s-7.01 1.73-8.32 16.81z"/>
  <path fill="#463014" d="M139.707 145.478c.174.325.263.507.263.507s-12.994 9.752-26.31-.144c-7.13-5.3-6.456-18.41-4.272-23.97 5.68 1.29 10.496 3.61 14.522 6.32-5.088-4.54-9.542-7.88-9.53-7.96l-5.783-1.64-11.24-3.85c-.144.86-4.244 20.08 7.59 33.17 5.245 5.81 29.835 18.81 41.51-3.42l-6.75 1.01z"/>
  <path fill="#463014" d="M138.49 146.907c7.316 11.135 25.775 4.772 25.457-7 0 0-12.334 6.807-23.23-5.726-6.363-7.31-26.75-27.49-54.395-20.78 19.092 4.2 44.367 21.64 52.168 33.52z"/>
  <path fill="#463014" d="M83.74 178.333c1.76 1.017 7.966 7.445 7.97 17.06 0 4.82-.48 29.04-2.866 43.835 3.59 2.332 6.09 2.828 9.663 5.205 1.79-17.136 3.072-41.972 2.474-51.998-.68-11.43-6.8-19.1-12.47-22.37-1.77-1.022-3.63-2.027-5.5-3.038-9.72-5.252-19.77-10.685-19.77-19.962 0-7.257 2.82-9.527 5.81-11.933l.32-.26c1.98-1.602 4.23-3.418 5.56-6.4 3.63-8.153 4.22-28.92 0-34.193-2.1-2.63-7.74-11.47-6.12-17.4.62-2.27 2.05-3.95 4.37-5.14 2.46-1.26 5.78-1.9 9.87-1.9 8.03 0 16.94 2.44 21.53 3.9 16.42 5.2 36.23 20.2 41.91 24.68l.28.21 3.63 2.53-2.27-3.81c-.14-.24-14.53-23.91-40.27-32.59-5.01-1.69-14.84-4.52-24.51-4.52-5.75 0-10.64 1-14.51 2.98-4.71 2.41-7.9 6.26-9.23 11.12-3.25 11.92 7.34 25.19 7.7 25.62 1.24 2.2 1.76 18.2-1.09 24.61-.39.88-1.46 1.75-2.83 2.85-.42.34-.9.7-1.41 1.08-4.02 3.03-10.1 7.62-10.1 18.19 0 14.46 14.67 22.31 26.45 28.61 1.94 1.04 3.78 2.02 5.45 2.98z"/>
  <path fill="#463014" d="M85.857 67.117c-6.303-5.23-1.605-10.082-2.103-16.023-.27-3.16-.52-6.144-1.563-7.79-5.8-9.158-19.48-11.937-19.62-11.966l-6.42-1.258 4.25-4.973c.55-.644 18.01-17.3 45.03-8.58 18.9 6.096 32.89 26.764 33.41 27.6l-9.47 4.455c-.11-.176-11.17-19.603-27.38-24.83-13.1-4.23-25.18-.207-30.36 2.43 5.5 2.196 12.69 6.195 17.03 13.036 2.05 3.23 2.39 7.3 2.72 11.238.44 5.215.85 10.138 4.69 13.326l-10.2 3.335z"/>
  <path fill="#463014" d="M85.652 68.188l-.407-.337c-4.674-3.87-3.845-7.7-3.042-11.39.365-1.7.75-3.47.594-5.28-.255-3.04-.5-5.91-1.416-7.36-5.52-8.72-18.87-11.51-19-11.54l-8.02-1.58 5.32-6.21c.1-.11 11.31-11.43 30.29-11.43 5.18 0 10.48.86 15.75 2.57 19.72 6.36 33.8 27.79 33.93 28l.57.91-11.21 5.28-.45-.71c-1.2-2.05-11.83-19.58-26.87-24.43-3.69-1.2-7.58-1.8-11.56-1.8-7.2 0-13.04 1.97-16.15 3.28 5.2 2.34 11.49 6.28 15.48 12.57 2.17 3.43 2.52 7.61 2.86 11.65.42 5.03.82 9.76 4.35 12.69l1.33 1.1-12.34 4.05z"/>
  <path fill="#463014" d="M110.896 57.172c-.004-.02-2.548-11.138-9.6-16.75-9.95-7.914-22.098-3.704-22.215-3.667l-1.76-5.45c.59-.19 14.48-4.565 27.27 4.43 12.87 9.046 14.42 17.246 14.55 18.152l-8.24 3.285z"/>
  <path fill="#463014" d="M110.212 58.472l-.248-1.094c-.026-.107-2.52-10.844-9.266-16.207-3.844-3.06-8.48-4.61-13.77-4.61-4.13 0-7.2.99-7.535 1.1l-.912.31-2.36-7.27.91-.29c.41-.13 4.09-1.28 9.31-1.28 6.88 0 13.38 2.02 18.81 5.84 13.2 9.28 14.81 17.85 14.95 18.8l.12.75-9.98 3.98zM86.928 34.65c5.652 0 10.83 1.738 14.96 5.024 5.99 4.77 8.807 13.19 9.66 16.21l6.49-2.587c-.587-2.292-3.175-9.17-14-16.78-5.178-3.64-11.135-5.484-17.71-5.484-3.608 0-6.41.574-7.796.924l1.17 3.62c1.36-.366 3.972-.927 7.226-.927zm58.787 260.832c-2.82 0-5.698-1.023-7.693-2.75-1.527-1.316-6.69-6.06-8.968-11.87-.85-2.173-.66-3.91.574-5.162.85-.857 2.614-1.882 6.195-1.882l2.548-.004c3.04-.003 8.15-.003 12.52-.003h4.19c2.73 0 4.68.59 5.8 1.74 1.44 1.48.98 3.37.58 4.36-.7 1.74-3.6 7.4-8.52 12.65-1.76 1.89-4.32 2.93-7.21 2.93zm2.955-147.92l-10.18-.655s2.602 4.588 4.288 10.522c1.904 6.71-1.74 16.52-1.74 16.52s13.575-15.37 7.633-26.39zm-12.71 174.805c-36.238-2.785-48.988-37.028-48.988-44.16l9.464.004h-4.732 4.732c.047 3.09 9.678 32.38 40.25 34.73l-.725 9.44z"/>
  <path fill="#FFF" d="M125.777 261.016c-.566-3.273-.625-6.377.066-9.427-2.754-2.07-7.696-2.84-11.404-4.05-3.04-1.92-18.55 1.96-29.81-11.66-14.11-17.06-11.14-27.25-11.14-27.25-3.62 4.02-7.12 2.48-12.64 21.22-5.52 18.74 2.59 31.8 17.71 44.91 7.14 6.19 17.24 8.74 25.92 9.72-2.91-2.92 4.97-3.22 10.4-5.25-.44-4.39.29-8.64 3.56-12.07 1.97-2.07 4.51-3.3 7.14-4.29.15-.34.27-.65.41-.98-.09-.3-.17-.6-.23-.92z"/>
  <path fill="#C9C9C9" d="M114.82 279.15c-.313-.92-.55-1.86-.783-2.803-.25-1.03-1.5-3.952.04-.617-.396-.854-.655-1.734-.846-2.62-24.48-.032-45.78-16.84-41.66-52.18-3.2-4.255-7.69 8.58-7.69 8.58s-12.25 35.588 19.4 49.38c10.55 4.6 19.87 7.898 22.07 6.567 4.58.93 8.72-2.263 10.27-4.363-.29-.645-.55-1.29-.78-1.945z"/>
  <path fill="#463014" d="M125.336 255.892c.038-2.983.647-5.872 2.09-8.75.1-.2.217-.39.325-.582-9.42-.08-20.27-.983-29.51-4.68-10.15-4.063-22.85-17.96-25.04-34.288 0 0-19.12 14.758-13.5 46.346 5.27 29.662 30.09 39.332 58.4 40.968.02-.192-3.18-6.8-2.17-10.845-16.07 1.17-34.05-5.04-42.72-19.32-7.94-13.06-5.71-35.37-2.45-38.64 7.97 25.13 36.62 30.24 54.59 29.8z"/>
  <path fill="#463014" d="M128.302 237.902c-5.094 14.95-15.5 27.047-15.5 27.047s14.314-.66 15.104-3.19c.585-1.87 12.924-30.75 17.66-64.59-4.455 7.32-16.828 39.44-17.264 40.72z"/>
  <path fill="#E78724" d="M209.393 203.437s16.225 24.815 28.133 42.425c1.842 2.724-11.908 2.913-11.908 2.913l-16.225-45.338zm-7.73-51.447s4.894 12.204 7.57 18.674c2.91 7.034 14 10.533 14 10.533s-5.75-6.03-5.75-21.306c0-6.4-8.272-8.95-8.272-8.95l-7.54 1.06z"/>
  <path fill="#E78724" d="M206.605 158.89s10.023 11.93 28.638 5.25 20.522-30.546 20.522-37.228c0-6.682-35.317 6.682-40.09 9.546-4.775 2.864-13.84 14.317-9.07 22.432zm70.3-127.49s-17.18-3.344-28.636 5.725c-11.46 9.067-14.8 16.228-14.8 16.228l19.3 15.302s9.33-4.325 12.19-16.735c2.86-12.408.95-18.134 11.93-20.52z"/>
  <path fill="#E78724" d="M211.618 124.427c7.397-10.5 19.583-15.08 29.32-15.84 16.597-1.297 24.472 4.57 24.472 4.57s-27.18 1.15-35.015 11.44c-14.585 19.15-35.854 20.706-39.256 16.5 3.93.196 8.26-1.753 12.89-6.133 2.89-2.74 5.24-7.204 7.58-10.537zm45.882 37.127s30.154-10.367 24.427-20.865c-5.726-10.51-1.172-16.23-1.172-16.23s16.843 12.57 12.548 25.93c-2.637 8.2-7.06 14.14-31.354 25.52-11.66 21.64-2.41 60.6-2.96 60.78-.93.3-16.36-7.63-15.31-44.08.32-11.19 1.21-26.47 13.81-31.08zm-39.516-111.48c12.64 6.424 29.967 15.37 29.967 15.37l-6.81 3.41c.65 1.055.97 1.684.97 1.684l-6.99 3.182s-17.08 12.375-27.55 20.33c3.49-10.745 13.73-27.627 13.73-27.627s2.91-7.757-3.3-16.35zm-42.006 261.86c38.86 0 52.025-19.73 52.025-19.73l-6.07 14.79c-2.296 6.4-26.79 26.31-45.896 26.31"/>
  <path fill="#E78724" d="M223.748 278.87s-3.58 21.855-17.894 21.855c-12.165 0-15.75-18.46-15.75-22.275l33.644.42zm23.827-32.958c-1.272-3.502-5.726-17.66-7.16-30.545-1.716-15.432-1.087-38.003-1.087-38.003s3.82 14.795 7.156 17.186c3.344 2.385 9.546 18.61 9.546 18.61s3.324 24.156 4.906 32.275c-4.377.877-8.06-1.703-13.36.477zm34.58-95.75s-8.116-2.866-10.5-20.522c-2.386-17.66 2.864-32.932 2.864-32.932s-.48 24.34 2.38 29.114c2.86 4.773 5.25 6.203 8.59 12.41 3.34 6.205-1.44 10.02-3.34 11.93z"/>
  <path fill="#FDC168" d="M272.465 35.576l1.66-1.05c4.883.166-1.66 1.05-1.66 1.05z"/>
  <path fill="#FBA919" d="M211.378 44.846s7.638-1.272 11.454-6.998c3.82-5.728 14.64-17.184 31.883-17.312 17.242-.13 34.3 4.583 34.3 4.583l-14.89 9.4c-1.576-.05-4.33-.03-8.888.12-18.685.62-21.562 19.1-21.562 19.1l-65.86-9.07"/>
  <path fill="#FFF" d="M205.016 146.942s8.91 8.91 22.59 6.044c13.684-2.862 21.957-8.908 22.594-19.41.635-10.5-2.863-14.635-2.863-14.635s-15.275 4.78-22.593 11.14-12.726 16.55-19.728 16.87z"/>
  <path fill="#C9C9C9" d="M215.796 143.76s7.73 3.53 16.364.654c11.31-3.77 12.062-15.53 12.062-15.53s6.932 20.355-12.514 24.273c-15.594 3.142-24.82-5.896-24.82-5.896l8.908-3.5z"/>
  <path fill="#463014" d="M266.31 67.117c6.302-5.23 1.608-10.082 2.106-16.023.266-3.16.516-6.144 1.56-7.79 5.8-9.158 19.482-11.937 19.623-11.966l6.42-1.258-4.25-4.973c-.55-.644-18.01-17.3-45.03-8.58-18.9 6.096-32.89 26.764-33.41 27.6l9.47 4.455c.11-.176 11.17-19.603 27.39-24.83 13.1-4.23 25.18-.207 30.35 2.43-5.5 2.196-12.69 6.195-17.03 13.036-2.05 3.23-2.39 7.3-2.72 11.238-.44 5.215-.86 10.138-4.7 13.326l10.19 3.335zm16.83 76.333s-7.937-9.847-10.29-29.008c-.923-7.547.715-22.433 3.34-28.16-.477 14.08 3.105 28.16 3.105 28.16s2.414 26.144 3.845 29.008z"/>
  <path fill="#463014" d="M241.27 57.172c.005-.02 2.55-11.138 9.603-16.75 9.948-7.914 22.097-3.704 22.21-3.667l1.77-5.45c-.59-.19-14.474-4.565-27.274 4.43-12.88 9.046-14.42 17.246-14.56 18.152l8.24 3.285zm16.933 79.216s4.166-5.964 3.413-12.523c-.37-3.24-1.87-6.564-4.55-7.744-4.98-2.18-7.188 3.46-7.188 3.46s7.01 1.73 8.325 16.81z"/>
  <path fill="#463014" d="M212.46 145.478c-.173.325-.263.507-.263.507s12.99 9.752 26.307-.144c7.133-5.3 6.46-18.41 4.27-23.97-5.675 1.29-10.49 3.61-14.52 6.32 5.09-4.54 9.544-7.88 9.528-7.96l5.787-1.64 11.23-3.85c.14.86 4.24 20.08-7.6 33.17-5.25 5.81-29.84 18.81-41.51-3.42l6.75 1.01z"/>
  <path fill="#463014" d="M213.674 146.907c-7.316 11.135-25.77 4.772-25.45-7 0 0 12.33 6.807 23.226-5.726 6.362-7.31 26.752-27.49 54.397-20.78-19.09 4.2-44.368 21.64-52.173 33.52z"/>
  <path fill="#463014" d="M268.43 178.333c-1.76 1.017-7.97 7.445-7.97 17.06-.004 4.82.477 29.04 2.866 43.835-3.59 2.332-6.09 2.828-9.664 5.205-1.79-17.136-3.076-41.972-2.474-51.998.683-11.43 6.8-19.1 12.474-22.37 1.777-1.022 3.635-2.027 5.51-3.038 9.72-5.252 19.77-10.685 19.77-19.962 0-7.257-2.824-9.527-5.81-11.933l-.32-.26c-1.98-1.602-4.228-3.418-5.553-6.4-3.63-8.153-4.23-28.92-.01-34.193 2.1-2.63 7.74-11.47 6.12-17.4-.62-2.27-2.05-3.95-4.37-5.14-2.46-1.26-5.78-1.9-9.87-1.9-8.03 0-16.94 2.44-21.53 3.9-16.42 5.2-36.23 20.2-41.92 24.68-.16.12-.26.2-.28.21l-3.64 2.53 2.27-3.81c.14-.24 14.53-23.91 40.27-32.59 5.01-1.69 14.84-4.52 24.51-4.52 5.75 0 10.63 1 14.5 2.98 4.71 2.41 7.9 6.26 9.23 11.12 3.25 11.92-7.33 25.19-7.7 25.62-1.24 2.2-1.76 18.2 1.09 24.61.39.88 1.47 1.75 2.83 2.85.43.34.9.7 1.41 1.08 4.02 3.03 10.1 7.62 10.1 18.19 0 14.46-14.66 22.31-26.44 28.61-1.93 1.04-3.78 2.02-5.44 2.98z"/>
  <path fill="#463014" d="M250.94 65.415c-2.332-3.95-8.296-11.577-22.042-18.28-15.34-7.476-33.094-11.27-52.777-11.28v-.004h-.07v.01c-19.68.01-37.44 3.81-52.78 11.28-13.74 6.71-19.7 14.33-22.04 18.28l-1 1.33L112 69.37l.378-.47.197-.434c.18-.78 1.76-4.98 14.884-11.38 14.03-6.842 30.39-10.31 48.63-10.32 18.24.008 34.6 3.477 48.63 10.32 13.12 6.4 14.71 10.6 14.89 11.378l.19.433.37.47 11.77-2.62-1-1.324z"/>
  <path fill="#463014" d="M266.31 67.117c6.302-5.23 1.608-10.082 2.106-16.023.266-3.16.516-6.144 1.56-7.79 5.8-9.158 19.482-11.937 19.623-11.966l6.42-1.258-4.25-4.973c-.55-.644-18.01-17.3-45.03-8.58-18.9 6.096-32.89 26.764-33.41 27.6l9.47 4.455c.11-.176 11.17-19.603 27.39-24.83 13.1-4.23 25.18-.207 30.35 2.43-5.5 2.196-12.69 6.195-17.03 13.036-2.05 3.23-2.39 7.3-2.72 11.238-.44 5.215-.86 10.138-4.7 13.326l10.19 3.335z"/>
  <path fill="#463014" d="M254.178 64.147l1.326-1.104c3.53-2.928 3.926-7.657 4.352-12.684.342-4.05.695-8.23 2.862-11.66 3.982-6.29 10.286-10.22 15.48-12.57-3.11-1.32-8.952-3.28-16.156-3.28-3.98 0-7.862.6-11.556 1.79-15.04 4.85-25.666 22.37-26.87 24.43l-.45.71-11.21-5.27.57-.91c.133-.21 14.2-21.64 33.925-28 5.28-1.71 10.58-2.57 15.76-2.57 18.99 0 30.2 11.32 30.29 11.43l5.32 6.22-8.02 1.57c-.13.02-13.48 2.82-19 11.54-.91 1.45-1.15 4.32-1.41 7.36-.15 1.81.23 3.57.6 5.28.8 3.69 1.63 7.52-3.04 11.39l-.4.33-12.34-4.05z"/>
  <path fill="#463014" d="M241.27 57.172c.005-.02 2.55-11.138 9.603-16.75 9.948-7.914 22.097-3.704 22.21-3.667l1.77-5.45c-.59-.19-14.474-4.565-27.274 4.43-12.88 9.046-14.42 17.246-14.56 18.152l8.24 3.285z"/>
  <path fill="#463014" d="M231.975 54.495l.11-.748c.14-.946 1.753-9.52 14.946-18.794 5.43-3.814 11.94-5.832 18.81-5.832 5.22 0 8.9 1.15 9.31 1.28l.91.3-2.36 7.27-.91-.3c-.34-.11-3.41-1.1-7.53-1.1-5.29 0-9.92 1.56-13.76 4.62-6.74 5.37-9.24 16.1-9.26 16.21l-.24 1.1-9.98-3.98zm40.49-18.92l1.175-3.618c-1.386-.352-4.192-.924-7.8-.924-6.574 0-12.533 1.846-17.71 5.484-10.827 7.61-13.415 14.488-14.002 16.78l6.497 2.587c.85-3.02 3.664-11.442 9.656-16.21 4.14-3.286 9.31-5.024 14.96-5.024 3.25 0 5.87.56 7.23.926zM199.242 292.56c-4.917-5.258-7.826-10.915-8.53-12.653-.4-.99-.86-2.877.583-4.36 1.124-1.147 3.072-1.736 5.796-1.736h4.2c4.37 0 9.48 0 12.52.01l2.55.01c3.58 0 5.35 1.03 6.19 1.88 1.24 1.25 1.43 2.99.58 5.17-2.28 5.81-7.44 10.56-8.97 11.87-2 1.73-4.87 2.75-7.69 2.75-2.89 0-5.45-1.04-7.21-2.92zm4.256-144.998l10.176-.655s-2.6 4.588-4.285 10.522c-1.91 6.71 1.74 16.52 1.74 16.52s-13.58-15.37-7.64-26.39z"/>
  <path fill="#E78724" d="M176.085 111.21c-6.49 0-14.95-.177-21.298-4.74 0 0 8.312 14.572 21.287 14.572l.01-1.844.012 1.844c12.976 0 21.287-14.57 21.287-14.57-6.348 4.56-14.815 4.74-21.298 4.74z"/>
  <path fill="#463014" d="M193.952 111.14c-6.51 3.94-12.322 5.305-17.867 5.426-5.546-.12-11.357-1.486-17.867-5.425 0 0 9.48 11.57 17.82 11.66v.01h.046c.015 0 .03.01.047.01 8.34-.09 17.83-11.65 17.83-11.65zm22.255 211.227l-.726-9.435c30.57-2.35 40.2-31.643 40.25-34.726h9.47c.01 7.13-12.75 41.376-48.98 44.16z"/>
  <path fill="#FFF" d="M226.39 261.016c.568-3.273.623-6.377-.067-9.427 2.758-2.07 7.696-2.84 11.404-4.05 3.032-1.92 18.552 1.96 29.81-11.66 14.103-17.06 11.13-27.25 11.13-27.25 3.62 4.02 7.122 2.48 12.638 21.22 5.52 18.74-2.595 31.8-17.712 44.91-7.14 6.19-17.238 8.74-25.922 9.72 2.91-2.92-4.96-3.22-10.39-5.25.44-4.39-.29-8.64-3.56-12.07-1.96-2.07-4.5-3.3-7.13-4.29-.15-.34-.27-.65-.41-.98.09-.3.17-.6.23-.92z"/>
  <path fill="#C9C9C9" d="M237.342 279.15c.318-.92.55-1.86.784-2.803.255-1.03 1.505-3.952-.038-.617.396-.854.655-1.734.846-2.62 24.482-.032 45.78-16.84 41.662-52.18 3.205-4.255 7.696 8.58 7.696 8.58s12.257 35.588-19.397 49.38c-10.547 4.6-19.867 7.898-22.067 6.567-4.585.93-8.72-2.263-10.267-4.363.29-.645.56-1.29.79-1.945z"/>
  <path fill="#463014" d="M226.827 255.892c-.034-2.983-.647-5.872-2.085-8.75-.102-.2-.22-.39-.326-.582 9.42-.08 20.27-.983 29.51-4.68 10.154-4.063 22.857-17.96 25.04-34.288 0 0 19.126 14.758 13.506 46.346-5.28 29.662-30.097 39.332-58.404 40.968-.015-.192 3.185-6.8 2.173-10.845 16.07 1.17 34.05-5.04 42.73-19.32 7.94-13.06 5.71-35.37 2.45-38.64-7.96 25.13-36.62 30.24-54.59 29.8z"/>
  <path fill="#463014" d="M238.258 263.332c-3.382-3.656-9.6-8.014-23.937-8.014l-38.18-.023h-.09c-11 .008-38.19.023-38.19.023-14.33 0-20.55 4.36-23.93 8.014-4.93 5.32-5.7 12.723-2.29 21.975 9.06 24.626 21.8 49.645 64.42 49.68v.004h.05c.02 0 .03.01.05.01 42.62-.03 55.36-25.05 64.42-49.68 3.41-9.25 2.64-16.65-2.29-21.97zm-6.636 20.248c-4.317 12.366-15.92 42.298-55.54 42.35-39.624-.052-51.222-29.983-55.54-42.35-2.388-6.86-2.206-11.938.56-15.092 1.89-2.156 6.23-4.73 16.12-4.73l10.333-.003c7.623-.007 17.194-.015 28.53-.02 11.33.005 20.906.013 28.527.02l10.33.004c9.893 0 14.232 2.57 16.122 4.72 2.763 3.15 2.947 8.23.558 15.09z"/>
  <path fill="#463014" d="M223.863 237.902c5.094 14.95 15.498 27.047 15.498 27.047s-14.31-.66-15.1-3.19c-.58-1.87-12.92-30.75-17.65-64.59 4.46 7.32 16.83 39.44 17.27 40.72z"/>
</svg>
