<?xml version="1.0" encoding="utf-8"?>
<svg version="1.1" id="Layer_1" xmlns="http://www.w3.org/2000/svg" xmlns:xlink="http://www.w3.org/1999/xlink" x="0px" y="0px"
	 viewBox="56.5 50 15 27.7" style="enable-background:new 56.5 50 15 27.7;" xml:space="preserve">
<g id="facebook">
	<g>
		<path class="st0" d="M68.2,55.2c1,0,2,0,2.7-0.3c0.4-0.8,0.6-1.9,0.6-3c-0.2,0-0.1-0.3-0.2-0.4c0-0.2-0.3-0.2-0.3-0.4
			c-0.3-0.2-0.5-0.4-0.7-0.6c-0.7-0.2-1.4-0.3-2.2-0.5c-0.8,0-1.9-0.1-2.6,0.1c-2.6,0-4,1.1-5.3,2.4c0,0.1,0,0.2-0.1,0.2
			c-0.6,1.6-0.1,3.6-0.2,5.6c0.1,0.4,0.1,1,0.2,1.4c-1,0.3-2.2,0.4-3.4,0.5c-0.3,0.3-0.2,1.1-0.2,1.7c0.1,0.6,0.3,1.1,0.4,1.6
			c0.2,0.2,0.6,0.4,0.8,0.5c0.1,0,0.1,0.1,0.1,0.1c0.5,0.3,1.5,0,2.3,0.1c-0.1,2,0.3,3.9,0,5.7c0,0.3,0.3,0.4,0.2,0.8
			c0,1-0.1,2,0.2,2.7c-0.3,0.5-0.5,1-0.4,1.8c0.1,0,0.1,0.2,0.1,0.3c-0.1,0.5,0.6,0.2,0.5,0.7c0.2,0.5-0.4,0.2-0.4,0.5v0.9
			c0.5,0.3,1.5,0.2,2.3,0.2c0.9-0.4,2.2-0.5,2.8-1.2c0.5,0.2,0.9,0,1.2-0.2c0-0.3,0.3-0.3,0.2-0.7c0-0.3-0.2-0.5-0.1-0.9v-2.9
			c-0.2-2.3,0-4.9-0.3-7.2c0.9-0.1,1.9-0.1,2.6-0.4c0.4-0.5,0.4-1.2,0.5-1.9c0.2-0.2,0.2-0.6,0.2-1c0.2-0.2,0.1-0.7,0.1-1.1
			c-0.1-0.6-0.2-1.3-0.8-1.4c-0.9-0.2-2,0.6-3,0.3c0-1.1-0.3-2.3,0-3.4C66.8,55.6,67.5,55.4,68.2,55.2z M64.4,60
			c0.1,0.3,0.3,0.5,0.4,0.7c0.1,0,0.2,0,0.2,0.1c1.2,0.1,2.2-0.1,3.1-0.3c0,1-0.3,1.7-0.5,2.5c-0.7,0-1.5,0.3-2,0.2
			c-0.3,0.2-0.4,0.5-0.6,0.7c0,0.4,0.1,0.5,0,0.8c-0.2,0.1-0.1,0.6-0.2,0.8v1.5c0.1,0.3-0.1,0.3-0.1,0.5v3.5
			c-0.1,0.3,0.1,0.3,0.1,0.5v3c0.1,0.3-0.1,0.8,0.1,0.9c-0.1,0.4-0.4,0-0.8,0.1c-0.5,0.1-0.9,0.4-1.5,0.4c0.1-0.4,0.3-0.6,0.3-1.1
			c0-0.4-0.4-0.3-0.5-0.5c0.2-0.6,0.6-1.1,0.7-1.8c0.2-0.5,0.7-1.3,0.3-1.8c-0.5-0.1-0.5,0.3-0.8,0.4c0,0.1,0,0.2-0.1,0.2
			c0,0.1,0,0.2-0.1,0.2c0,0.1-0.2,0.1,0,0c0-0.1,0-0.2,0.1-0.2c0-0.1,0-0.2,0.1-0.2v-0.3c0.4-0.6,0.7-1.2,0.8-2
			c0.2-0.3,0.3-0.7,0.4-1c0.2-0.3,0.3-0.9,0.1-1.2c-0.5,0-0.8,0.3-0.9,0.7c-0.3-0.2,0.2-0.4,0.1-0.7c0.1-0.2,0.2-0.6,0.3-0.8
			c0.2-0.4,0.6-1.3,0-1.6c-0.4,0-0.6,0.2-0.7,0.5c-0.2,0.2-0.4,0.4-0.5,0.7c-0.4-0.1-0.1-0.7-0.2-1.1c-0.1-0.5,0.1-0.9,0-1.2
			c-0.6-0.8-2-0.1-3.2-0.3c-0.1-0.3-0.2-1-0.1-1.2c1-0.1,2.5,0.2,3.2-0.2c0-0.1,0-0.2,0.1-0.2c0.1-0.7-0.3-1-0.5-1.4
			c0.2-0.8,0-2,0.1-3c0.2-0.1,0.3-0.4,0.5-0.6c0.1-1,0.7-1.5,0.7-2.5c-0.3,0-0.6-0.1-0.6,0.2c-0.3-0.1-0.4,0.5-0.5,0.2
			c-0.1-0.5,0.2-0.6,0.3-1c0.6-0.4,1.2-0.8,1.9-1.2c1.7-0.2,4.6-0.4,6.1,0.2c0.1,0.6-0.3,0.9-0.2,1.5h-1.5c-1.1,0.2-2,0.7-3,1
			c-0.2,0.1-0.3,0.3-0.5,0.4c0,0.4-0.2,0.6-0.3,1C64.2,57.4,64.4,58.6,64.4,60z"/>
	</g>
</g>
</svg>
