<?xml version="1.0" encoding="utf-8"?>
<svg id="htmlacademy" version="1.1" xmlns="http://www.w3.org/2000/svg" xmlns:xlink="http://www.w3.org/1999/xlink" x="0px" y="0px"
	 viewBox="0 0 154.4 195.3" style="enable-background:new 0 0 154.4 195.3;" xml:space="preserve">
<path class="st0" d="M78,0.6l-0.8-0.1l-76.7,8v140.6l76.7,45.6l76.7-45.6V8.5L78,0.6z M143.9,143.4l-66.7,39.7l-66.7-39.7V85.8
	l66.4,39.5l0.1,7.2l-45.5-27.1l-0.1,7l45.7,27.5l0.1,7.3l-45.7-27.2l-0.1,7l45.7,27.5l46.2-27.6v-7l-0.1,0v-2.4v-2.9V97.1l20.6-12.3
	V143.4z M143.8,77.3l-18.2,10.7l-8.4,5L77,69.2l-0.1,7l34.3,20.4l-0.3,0.2l-0.7,0.4l-4.9,2.9L77,83.2l-0.1,7l22.4,13.3l-5.3,3.5
	l-0.1,0.1L77,97.1l-0.1,7l11.1,6.5l-11.3,6.8l-66-39.3l66.1-39.8v0L143.8,77.3z M143.9,70.4l-67-39.5v0l0,0l0,0v0L10.5,70.3V17.6
	l66.7-7l66.7,7V70.4z"/>
</svg>
