<?xml version="1.0" encoding="utf-8"?>
<svg version="1.1" id="Layer_1" xmlns="http://www.w3.org/2000/svg" xmlns:xlink="http://www.w3.org/1999/xlink" x="0px" y="0px"
	 viewBox="239.7 239.8 32.7 32.5" style="enable-background:new 239.7 239.8 32.7 32.5;" xml:space="preserve" fill="#63d1bb">
<path class="st0" d="M242.6,272.2h12.5v-13.9h-12.5V272.2z M270.7,248.6h-7.3c0.5-0.3,1-0.5,1.4-0.8c1.6-1.1,2.4-2.6,2.4-4
	c0-1.2-0.6-2.2-1.4-2.9c-0.8-0.7-1.9-1.1-3-1.1c-1.2,0-2.4,0.4-3.3,1.1c-1.5,1-2.6,2.5-3.4,4.1c0,0.1-0.1,0.2-0.1,0.2
	c-0.3-0.6-0.6-1.2-1-1.8c-0.7-1-1.5-1.9-2.5-2.5c-1-0.6-2.1-1.1-3.3-1.1c-1.2,0-2.3,0.5-3.2,1.3c-0.8,0.8-1.4,1.9-1.4,3.1
	c0,0.7,0.2,1.5,0.6,2.2c0.6,0.9,1.4,1.6,2.6,2.2h-6.6c-0.9,0-1.6,0.7-1.6,1.6v5.9h15.4v-7.5h1.9v7.5h15.4v-5.9
	C272.3,249.3,271.6,248.6,270.7,248.6 M248.4,246.3c-0.6-0.4-1-0.8-1.2-1.1c-0.2-0.4-0.3-0.7-0.3-1c0-0.5,0.2-1,0.7-1.5
	c0.4-0.4,1-0.7,1.6-0.7h0c0.7,0,1.4,0.2,2,0.7c1,0.7,2,1.8,2.6,3.2c0.3,0.7,0.6,1.4,0.8,2.1C251.5,247.7,249.5,247,248.4,246.3
	 M258.9,244.7c0.6-0.8,1.2-1.5,1.9-1.9c0.7-0.5,1.4-0.7,2-0.7h0c0.6,0,1.1,0.2,1.5,0.5c0.4,0.3,0.6,0.7,0.6,1.2
	c0,0.5-0.3,1.3-1.5,2.1c-1.1,0.8-3.1,1.7-6.1,2.3C257.6,247,258.2,245.7,258.9,244.7 M256.9,272.2h12.5v-13.9h-12.5V272.2z"/>
</svg>
