<?xml version="1.0" encoding="utf-8"?>
<svg version="1.1" id="Money" xmlns="http://www.w3.org/2000/svg" xmlns:xlink="http://www.w3.org/1999/xlink" x="0px" y="0px"
	 viewBox="46.2 56.8 46.6 27.3" style="enable-background:new 46.2 56.8 46.6 27.3;" xml:space="preserve" fill="#63d1bb">
<path d="M88.9,56.8H50.1c-2.2,0-3.9,1.7-3.9,3.9v19.5c0,2.2,1.7,3.9,3.9,3.9h38.8c2.2,0,3.9-1.7,3.9-3.9V60.7
	C92.8,58.6,91,56.8,88.9,56.8z M49.2,81.8V59.6h40.2v22.2H49.2z"/>
<path d="M53.1,77.9h32.4V63.5H53.1V77.9z M69.5,65.4c2.9,0,5.3,2.4,5.3,5.3c0,2.9-2.4,5.3-5.3,5.3c-2.9,0-5.3-2.4-5.3-5.3
	C64.2,67.7,66.6,65.4,69.5,65.4z"/>
</svg>
