<?xml version="1.0" encoding="utf-8"?>
<svg version="1.1" id="Layer_1" xmlns="http://www.w3.org/2000/svg" xmlns:xlink="http://www.w3.org/1999/xlink" x="0px" y="0px"
	 viewBox="612.5 500.4 54.2 23.2" style="enable-background:new 612.5 500.4 54.2 23.2;" xml:space="preserve" fill="#63d1bb">
<g>
	<path d="M652.8,506.1c-3.6-1-7.8-1.7-12.4-1.7c-2.9,0-5.5,0.2-7.7,0.6l-6.8-4.7l-13.5,0l5.8,6.2h8.4c-4.6,1.6-6.8,3.5-6.8,3.5
		l0,3.8c0,0,2.3,1.9,6.9,3.5l-8.6,0l-5.8,6.2l13.5,0l6.8-4.7c2.3,0.4,4.8,0.6,7.7,0.6c4.5,0,8.7-0.7,12.4-1.7
		c-1.2-1.8-1.9-3.7-1.9-5.9C650.9,509.8,651.7,507.9,652.8,506.1z"/>
	<path d="M656.3,507.1c-1.3,1.6-2,3.2-2,4.8c0,1.6,0.7,3.2,2,4.8c6.4-2.2,10.4-4.8,10.4-4.8S662.7,509.3,656.3,507.1z"/>
</g>
</svg>
