<?xml version="1.0" encoding="utf-8"?>
<svg version="1.1" id="Layer_1" xmlns="http://www.w3.org/2000/svg" xmlns:xlink="http://www.w3.org/1999/xlink" x="0px" y="0px"
	 viewBox="8 4.3 32 37.3" style="enable-background:new 8 4.3 32 37.3;" xml:space="preserve" fill="#63d1bb">
<path class="st0" d="M24,41.7c8.8,0,16-7.2,16-16C31.2,25.7,24,32.8,24,41.7z M12.6,20.8c0,2.5,2,4.4,4.4,4.4c0.9,0,1.8-0.3,2.5-0.8
	l0,0.3c0,2.5,2,4.4,4.4,4.4c2.5,0,4.4-2,4.4-4.4l0-0.3c0.7,0.5,1.6,0.8,2.5,0.8c2.5,0,4.4-2,4.4-4.4c0-1.8-1-3.3-2.5-4
	c1.5-0.7,2.5-2.2,2.5-4c0-2.5-2-4.4-4.4-4.4c-0.9,0-1.8,0.3-2.5,0.8l0-0.3c0-2.5-2-4.4-4.4-4.4c-2.5,0-4.4,2-4.4,4.4l0,0.3
	c-0.7-0.5-1.6-0.8-2.5-0.8c-2.5,0-4.4,2-4.4,4.4c0,1.8,1,3.3,2.5,4C13.7,17.5,12.6,19,12.6,20.8z M24,12.3c2.5,0,4.4,2,4.4,4.4
	c0,2.5-2,4.4-4.4,4.4c-2.5,0-4.4-2-4.4-4.4C19.6,14.3,21.5,12.3,24,12.3z M8,25.7c0,8.8,7.2,16,16,16C24,32.8,16.8,25.7,8,25.7z"/>
</svg>
