<?xml version="1.0" encoding="utf-8"?>
<svg version="1.1" id="Layer_1" xmlns="http://www.w3.org/2000/svg" xmlns:xlink="http://www.w3.org/1999/xlink" x="0px" y="0px"
	 viewBox="0 0 21.8 21.3" style="enable-background:new 0 0 21.8 21.3;" xml:space="preserve">
<g id="instagram">
	<g>
		<path class="st0" d="M21.8,12.1c0-2.4-0.3-4.8-0.3-7.1c0-0.8-0.1-1.5-0.2-2.3c-0.1-0.3-0.1-0.7-0.2-1.1c-0.3-0.2-0.2-0.6-0.5-0.8
			c-0.4-0.2-1.2-0.1-1.7-0.2c-0.7,0-1.3-0.1-1.9-0.2c-1.9-0.1-4-0.1-6-0.1S7,0.2,5.3-0.1H3.1C3-0.1,3,0,2.9,0C2.3,0,1.8,0.2,1.3,0.3
			C1.1,0.4,0.9,0.5,0.6,0.6C0.5,0.8,0.1,0.7,0,1c-0.2,0.2,0.2,0.5,0,0.6v0.9c0.2,0.1,0,0.6,0.1,0.8v1c0,1.3,0.1,2.4,0.1,3.7
			c0.5,2.8,0.4,6.5,0.1,9.4c0.2,0.6,0.4,1.1,0.5,1.7c0.3,0.5,0.3,1.1,0.7,1.5c0.5,0.2,1.2,0.2,1.9,0.2c0.4,0.1,0.7,0.3,1.1,0.3
			c2.8-0.2,5.5-0.2,8.4-0.2c2.7,0.2,5.8,0.2,8.3-0.2c0.2-0.1,0.1-0.5,0.2-0.8c-0.1-0.4,0.2-0.4,0.2-0.8C21.8,17,21.8,14.6,21.8,12.1
			z M8.8,5.9c0.8-0.2,1.5-0.3,2.4-0.3c0.7,0.1,1.3,0.3,1.9,0.5c0.1,0.2-0.2,0.5,0.2,0.7l0,0c0.1,0,0.1,0,0.2,0.1
			c0.4,0,0.8,0.2,1.1,0.4c0.5,0.1,0.5,0.5,1.1,0.4c-0.1,0.2-0.1,0.5-0.1,0.8c0.3,1.2,0.5,2.8,0.3,4.3c-0.2,0.2-0.2,0.4-0.3,0.7
			c-0.3,0.3-0.5,0.8-0.8,1.1c-0.1,0.2-0.2,0.4-0.5,0.5c-0.1,0.2-0.2,0.5-0.5,0.5c-0.3,0.2-0.6,0-0.8-0.1c-0.4,0.2-0.9,0.3-1.2,0.6
			c-0.8-0.1-1.6-0.2-2.4-0.3c-0.2-0.1-0.5-0.3-0.8-0.3c-0.2-0.2-0.5-0.4-0.8-0.5c-0.1-0.1-0.3-0.1-0.5-0.2c-0.2,0-0.2-0.2-0.5-0.2
			c-0.1-0.4-0.4-0.6-0.5-1.1c-0.2-0.3-0.3-0.8-0.5-1.2c0-1.4,0.1-2.7,0.4-3.8C6.5,7.9,7,7.4,7.3,6.8c0.2,0,0.4-0.1,0.4-0.3
			C8,6.6,8.1,6.4,8.4,6.4C8.6,6.4,8.6,6.1,8.8,5.9z M7.1,3.2C7,2.9,7,2.5,7,2.1c0-0.3,0.3-0.3,0.3-0.5c0-0.1-0.1-0.1-0.2-0.1
			c0.1-0.1,0.7-0.1,0.8,0C8,2,7.5,2,7.4,2.2c0,0.2,0.3,0,0.5,0.1c0,0.9-0.1,1.5,0,2.2H7.4c0,0.2,0.2,0.2,0.5,0.2C7.8,5,8,5.1,8,5.3
			c-0.2,0.2-0.7,0-1.1,0.1C6.9,4.8,7.2,4,7.1,3.2z M6.4,1.6c0.1,0,0.1,0,0.2,0.1c0.2,0.3,0,0.7-0.1,0.9C6.3,2.4,6.5,1.9,6.4,1.6z
			 M6.6,3.4C6.5,3.3,6.4,3.2,6.4,2.9C6.6,3,6.6,3.2,6.6,3.4z M6.6,4.8c-0.1,0.1-0.1,0-0.1-0.2C6.6,4.5,6.6,4.7,6.6,4.8z M6.4,5
			c0.2,0,0.1,0.2,0.2,0.2c0,0.2-0.3,0.2-0.4,0.1C6.3,5.2,6.4,5.1,6.4,5z M4.1,3.8c0-0.1,0-0.2-0.1-0.2c-0.1-0.7,0.1-1.4,0-2
			c0.2-0.2,0.8,0,1.1-0.1v1.1C5,2.7,4.9,2.7,4.7,2.7C4.6,3,5,2.8,5.1,3c0,0.9-0.1,1.8,0.2,2.4C4.7,5.3,4.4,5.5,3.9,5.5
			c0.1-0.6,0-1.4,0.5-1.6C4.4,3.8,4.1,3.9,4.1,3.8z M3.6,3.8c-0.2,0-0.2-0.5-0.1-0.6C3.8,3.2,3.7,3.7,3.6,3.8z M3.4,4.8
			c0.1-0.3,0-0.3,0.1-0.7C3.7,4.1,3.7,4.9,3.4,4.8z M3.6,2.7C3.3,2.8,3.3,2.4,3.4,2.3C3.7,2.3,3.8,2.6,3.6,2.7z M3.6,1.6
			c0,0.2-0.1,0.2-0.1,0.3c-0.2,0-0.1-0.2-0.2-0.2C3.4,1.6,3.5,1.6,3.6,1.6z M3.4,5.3c0.1,0,0.1,0.3-0.1,0.2C3.4,5.5,3.4,5.4,3.4,5.3
			z M2.7,1.6c0,0.3-0.4,0.3-0.4,0H2.7z M1.7,1.7c0,0.2-0.3,0.2-0.4,0.4C1.1,1.9,1.4,1.6,1.7,1.7z M1.3,2.4C1.5,2.2,1.8,2,2,1.8
			c0-0.1,0.1-0.1,0.1-0.2h0.2C2.4,2,2,1.9,2,2.1c0,0.1-0.1,0.1-0.1,0.2c0,0.3,0.1,0.6,0.1,1c-0.3,0-0.3,0.3-0.6,0.2
			C1.4,3.1,1.2,2.9,1.3,2.4z M1.4,5.7V4.1C1.6,3.9,1.8,3.7,2,3.6C2.3,4.1,2.2,5,2.5,5.5C2.1,5.6,1.7,5.6,1.4,5.7z M19.6,16.8
			c-0.1,1-0.2,2-0.4,2.8c-2.9,0.1-6,0-8.9,0.2c-0.2,0-0.3,0-0.2-0.2c-0.3,0-0.3,0.2-0.5,0.2c0.2-0.3,0.4-0.9,0.2-1.3
			c-0.8,0-0.8,0.8-1.1,1.3c-0.7-0.1-1.1,0.1-1.8,0.1c0.2-0.7,0.7-1,0.9-1.7c-0.4-0.5-1,0.1-1.2,0.5C6.4,19.2,6,19.5,5.8,20h-1
			c0.2-0.5,0.5-0.9,0.8-1.4c0.2-0.5,0.6-0.7,0.7-1.4c-0.2-0.3-0.4,0-0.7,0c-0.1,0.2-0.3,0.3-0.4,0.5c-0.2,0.4-0.5,0.7-0.7,1.1
			C4.3,19,4.2,18.8,4,19c-0.4,0.3-0.6,0.7-1,1c-0.2-0.1,0-0.4,0.2-0.4c0-0.2-0.1-0.5,0.1-0.6c0.1-0.4,0.2-0.6,0.4-0.9
			c0.1-0.7,0.5-1.2,0.7-1.9c-0.6,0.1-0.7,0.6-1,1c-0.2,0.4-0.5,0.8-0.7,1.3c-0.2-0.1,0-0.6-0.1-0.8C2.7,17.1,2.9,16.6,3,16
			c0.1-0.2,0.2-0.5,0.2-0.8c0.2-0.2,0-0.6-0.1-0.8c-0.2,0-0.4,0.1-0.5,0.3c-0.2,0-0.2,0.5-0.3,0.3c0-2.6-0.5-4.8-0.5-7.4
			c0-0.3-0.2-0.4-0.2-0.7c1.6,0,3.1,0.1,4.8,0.2C6.3,7.2,6.2,7.4,6.1,7.5C6,7.6,5.9,7.7,5.7,7.8c-0.6,1.7-1,4-0.6,6.2
			c0.2,0.6,0.6,1,1,1.4c0.9,0.5,1.6,1.1,2.5,1.7c1.7,0.4,3.8,0.4,5.5,0c0.2-0.1,0.5-0.2,0.7-0.4c1.4-1.2,2.8-2.5,3-4.9v-1.4
			c-0.2-1.6-0.7-2.9-1.7-3.6c0.3-0.2,1.1,0,1.7,0.1c0.2,0,0.4,0,0.7,0c0.4,0,0.9-0.1,1.4,0C20,7.1,20,7.4,20.1,7.7
			c-0.1,1.7-0.2,3.3-0.2,5.1c0.1,0.5,0.1,1,0.2,1.4C19.9,15,19.8,15.9,19.6,16.8z M20,5.6c-0.6-0.1-1.2-0.3-1.9-0.4
			c0.1-0.3,0.8,0,1-0.2c0.4-0.2,0.3-0.9,0.3-1.5c0-0.3,0.1-0.6,0.1-1.1c-0.4-1-1.8-0.4-2.9-0.5c-0.2,0.7-0.5,1.8-0.3,2.7
			c0.2,0.5,1,0.3,1.5,0.5c-0.1,0.3-0.7,0.1-1,0.1c-0.3-0.1-0.7-0.1-1-0.2c-2.3,0.1-4.3,0-6.5,0.2C9.4,4,9.4,2.7,9.2,1.6h3.1
			C12,2,11.4,2.1,11,2.4c-0.4,0.2-0.9,0.5-1.1,0.9c0.2,0.1,0.5-0.2,0.8-0.4c0.4-0.1,0.5-0.4,0.8-0.5c0.4-0.4,1.1-0.6,1.7-0.9
			c0.4,0,0.7,0,1,0.1c1.3,0,2.5,0.1,3.8,0.1c0.6,0.1,1.5,0.1,2,0.3c0.1,0.3,0.2,0.6,0.3,0.9C20.2,3.9,20,4.7,20,5.6z M14.1,1.9
			C14.2,1.8,14.1,1.8,14.1,1.9L14.1,1.9z M14.1,1.9c-0.5,0.2-1,0.3-1.4,0.7C13.2,2.4,13.8,2.3,14.1,1.9z M15.2,2.5
			C15.3,2.4,15.2,2.4,15.2,2.5L15.2,2.5z M13.4,3.4c0.7-0.2,1.2-0.6,1.7-0.9c-0.4,0-0.6,0.3-1,0.4C14,3.1,13.6,3.1,13.4,3.4z
			 M12.7,2.6C12.6,2.6,12.8,2.7,12.7,2.6L12.7,2.6z M12.1,3.2C12.2,3.1,12.1,3.1,12.1,3.2L12.1,3.2z M12,3.3
			C12.1,3.3,12.1,3.2,12,3.3C12,3.2,12,3.2,12,3.3z M11.9,3.3C12,3.3,12,3.3,11.9,3.3C11.9,3.2,11.9,3.3,11.9,3.3z M11.1,3.9
			c0.3-0.1,0.6-0.3,0.8-0.6C11.6,3.5,11.3,3.7,11.1,3.9z M13.4,4.9c0.5,0,0.7-0.4,1.2-0.5c0.3-0.3,0.8-0.4,1-0.8
			c-0.6,0-0.8,0.4-1.2,0.5C14.1,4.5,13.6,4.6,13.4,4.9z M11.1,3.9C10.8,3.9,11.1,4.2,11.1,3.9L11.1,3.9z M10.5,4.3
			C10.6,4.3,10.7,4.3,10.5,4.3C10.6,4.2,10.5,4.3,10.5,4.3z M13.4,4.9C13.2,5,13.4,5,13.4,4.9L13.4,4.9z M12.2,6.7
			c-0.2-0.2-0.7-0.2-1-0.4c-0.7,0-1.2,0.1-1.7,0.2C9.2,6.7,8.9,6.8,8.6,7C8.3,7.2,8.2,7.4,7.8,7.5C7.6,7.7,7.4,8,7.1,8.1
			c0,0.2-0.2,0.3-0.3,0.4C6.7,8.6,6.7,8.8,6.6,8.9c0,0.1,0,0.3-0.1,0.3c0.1,1.5,0.3,2.9,0.7,4.2c0.3,0.6,1,0.8,1.4,1.3
			c0.6,0.3,1.3,0.4,2.1,0.5c0.3-0.1,0.6-0.1,0.9-0.1c1.2-0.2,2.1-0.7,2.8-1.4c0.1-0.3,0.3-0.5,0.5-0.7c-0.3-0.7,0.3-1.1,0.5-1.6
			c0-1.3-0.2-2.5-0.6-3.4c-0.3-0.6-0.9-0.8-1.4-1.1c-0.1,0-0.2,0-0.2-0.1C13,6.7,12.5,6.6,12.2,6.7z M8.8,11.1
			c-0.1-0.1-0.1-0.2-0.2-0.4C8.9,10.6,8.8,10.9,8.8,11.1z M8.9,11.4C8.9,11.3,9,11.4,8.9,11.4C8.9,11.6,8.9,11.5,8.9,11.4z M9.3,9.3
			C9.3,9.2,9.4,9.3,9.3,9.3C9.4,9.4,9.3,9.4,9.3,9.3z M11,7.2c-0.2,0.3,0,0.6,0.1,0.8C10.8,8,10.5,7.2,11,7.2z M11.4,11.1
			C11.3,11.1,11.4,11.1,11.4,11.1C11.5,11.1,11.4,11.2,11.4,11.1z M12.1,14c0-0.1,0.1,0,0.2,0C12.3,14.1,12.1,14.1,12.1,14z
			 M14.3,11.5c-0.2-0.1-0.1,0.2-0.4,0.2c0.1-0.2,0.1-0.3,0.2-0.5C14.3,11.2,14.4,11.3,14.3,11.5z M13.2,7.7c0.2,0.1,0.4,0.2,0.6,0.4
			c0.1,0.2,0.2,0.4,0.4,0.5c0.1,0.8,0.2,1.5,0.2,2.4c-0.3,0.1-0.4,0.3-0.7,0.4c-0.8,0-1.4-0.2-1.9-0.5c-0.2-0.3-0.4-0.5-0.5-0.8V9
			c0.2-0.2,0.3-0.4,0.5-0.6c0.2-0.1,0.5-0.2,0.5-0.6c0-0.1-0.1-0.1-0.1-0.2c0.2,0,0.2,0.2,0.4,0.2C12.8,7.8,12.9,7.6,13.2,7.7z"/>
	</g>
</g>
</svg>
