<?xml version="1.0" encoding="utf-8"?>
<svg version="1.1" id="svg4488" xmlns="http://www.w3.org/2000/svg" xmlns:xlink="http://www.w3.org/1999/xlink" x="0px" y="0px"
	 viewBox="-259.4 -19.7 40.2 62.4" style="enable-background:new -259.4 -19.7 40.2 62.4;" xml:space="preserve" width="41" height="62" fill="#149080">
<g>
	<path d="M-244.2,18.3c-0.3,1-0.2,2.2,0,3.6c0.5,2.6,1.7,6,2.4,9.7h5.1c0.7-3.6,1.9-7,2.5-9.7c0.3-1.4,0.3-2.7,0-3.6
		c-0.3-0.9-0.9-1.6-2-2.3h-6C-243.4,16.7-244,17.4-244.2,18.3z"/>
	<path d="M-232.4,38.3h-13.8c-1.3,0-2.3,1-2.3,2.2v2.2h2.3h13.8h2.3v-2.2C-230.1,39.3-231.1,38.3-232.4,38.3z"/>
	<path d="M-225.3-17.4H-237c0-1.2-1-2.2-2.3-2.2c-1.3,0-2.3,1-2.3,2.2h-11.7l-6.1,25.5c0.8-0.5,1.6-1,2.6-1c1.4,0,2.2,0.8,2.9,1.4
		c0.7,0.6,1.2,0.8,1.4,0.8c0.3,0,0.8-0.3,1.5-0.8c0.7-0.5,1.6-1.4,2.9-1.4c1.3,0,2.2,0.8,2.9,1.4c0.7,0.5,1.2,0.8,1.5,0.8
		c0.1,0,0.3-0.1,0.6-0.2c0.2-0.1,0.5-0.4,0.9-0.6c0.5-0.4,1.1-1,2-1.2c0.3-0.1,0.6-0.1,0.9-0.1c1.3,0,2.2,0.8,2.9,1.4
		c0.7,0.5,1.2,0.8,1.5,0.8c0.3,0,0.8-0.3,1.4-0.8c0.7-0.6,1.6-1.4,2.9-1.4c1.4,0,2.2,0.8,2.9,1.4c0.3,0.3,0.6,0.5,0.9,0.6
		c0.2,0.1,0.4,0.2,0.6,0.2c0.3,0,0.8-0.3,1.4-0.9c0.7-0.6,1.6-1.4,2.9-1.4c1,0,1.8,0.5,2.6,1L-225.3-17.4z"/>
	<path d="M-235.9,33.8h-6.9c-0.7,0-1.1,0.5-1.1,1.1c0,0.6,0.5,1.1,1.1,1.1h6.9c0.7,0,1.1-0.5,1.1-1.1
		C-234.7,34.3-235.2,33.8-235.9,33.8L-235.9,33.8z"/>
	<path d="M-239.3,9.3c-0.1,0-0.3,0.1-0.6,0.2c-0.2,0.1-0.4,0.3-0.6,0.4v3.7h2.3V10C-238.7,9.6-239.1,9.3-239.3,9.3z"/>
</g>
</svg>
