<?xml version="1.0" encoding="utf-8"?>
<svg version="1.1" id="Layer_1" xmlns="http://www.w3.org/2000/svg" xmlns:xlink="http://www.w3.org/1999/xlink" x="0px" y="0px"
	 viewBox="0 0 32 32" style="enable-background:new 0 0 32 32;" xml:space="preserve" width="32" height="21" fill="#62d1ba">
<path id="mail" class="st0" d="M28,5H4C1.8,5,0,6.8,0,9v13c0,2.2,1.8,4,4,4h24c2.2,0,4-1.8,4-4V9C32,6.8,30.2,5,28,5z M2,10.2l7,5.2
	l-7,5.2V10.2z M30,22c0,1.1-0.9,2-2,2H4c-1.1,0-2-0.9-2-2l7.8-5.9l4.4,3.3c0.5,0.4,1.2,0.6,1.8,0.6c0.6,0,1.3-0.2,1.8-0.6l4.4-3.3
	L30,22L30,22z M30,20.8l-7-5.2l7-5.2V20.8z M17.2,18.6C16.8,18.9,16.4,19,16,19c-0.4,0-0.9-0.1-1.2-0.4l-4.1-3.1l-0.8-0.6L2,9v0
	c0-1.1,0.9-2,2-2h24c1.1,0,2,0.9,2,2L17.2,18.6z"/>
</svg>
