<?xml version="1.0" encoding="utf-8"?>
<svg version="1.1" id="Layer_1" xmlns="http://www.w3.org/2000/svg" xmlns:xlink="http://www.w3.org/1999/xlink" x="0px" y="0px"
	 viewBox="0 0 148.1 72.7" style="enable-background:new 0 0 148.1 72.7;" xml:space="preserve" width="149" height="72">
<g id="Layer_2">
	<g>
		<path d="M143.2,31.6c-1.5,1.1-3.1,2-4.7,2.8c0-1.8-0.1-3.5-0.6-5.2c0.1-0.3,0.1-0.7,0.1-1c0.4-3,0.7-7.2-2-9.3
			c-0.3-0.3-1.2,0-1.9,0.3c-0.2-0.2-0.3-0.3-0.5-0.4c-0.1-0.2-0.2-0.5-0.2-0.7c0-0.1-0.2-0.2-0.4-0.2c0.3-0.4,0.3-0.8-0.4-1.1
			c-0.4-0.2-0.8-0.3-1.1-0.4c-0.1-0.1-0.1-0.1-0.2-0.1c0,0,0,0,0,0c-0.9-0.3-1.9-0.5-2.9-0.7c0.1-0.3,0.4-0.8,0.6-1
			c0.1-0.2,0.3-0.3,0.4-0.4c0.1-0.1,0.1-0.1,0.2-0.2c0,0,0.1,0,0.1-0.1c0,0,0,0,0.1-0.1c0.4-0.3,0.8-0.9,0.2-1.2
			c-0.6-0.3-1.5-0.1-2,0.2c-0.9,0.7-1.6,1.4-2.1,2.4c-2-0.2-4-0.2-6.1-0.1c0.1-0.1,0.1-0.2,0.1-0.3c0.2-0.6-0.9-0.5-1.2-0.5
			c-1.6,0.2-3.1,0.4-4.7,0.6c1.4-3.8,3.1-8.6,1-12.3c-1.2-2.1-3.9-2.6-6.1-2.7c-2.4-0.1-4.9,0.5-7,1.6c-4.8,2.6-7.1,7.8-8.2,13.2
			c-0.5-0.7-2.3-0.4-2.6,0.5c-0.1,0.3-0.2,0.6-0.3,1c-0.2,0.2-0.3,0.4-0.3,0.6c0,0.1,0,0.1,0,0.2c-0.1,0-0.1,0-0.2,0
			c0-0.1,0-0.2,0.1-0.3c0.1-0.1,0.2-0.2,0.3-0.4c0.6-2.3,1.2-4.6,1.9-6.9c0.3-0.8-2.5-0.4-2.8,0.4c-0.4,1.2-0.8,2.4-1.1,3.6
			c-0.2,0.1-0.4,0.2-0.4,0.3c0,0,0,0.1,0,0.1C88,14,87.8,14,87.6,13.9c0-0.3,0-0.6,0-1c0-0.4-2.8,0-2.8,0.8c0,0.5,0,1.1,0,1.6
			c-0.2,0.1-0.3,0.2-0.5,0.3c-0.1,0.1-0.1,0.1-0.2,0.2C84.1,15.8,84,15.9,84,16c0,0,0,0.1,0,0.1c0,0,0,0-0.1,0.1
			c-0.1,0.1-0.2,0.3,0,0.5c0.2,0.2,0.5,0.2,0.7,0.2c0,0,0.1,0,0.1,0c0,0.2,0,0.3,0,0.5c-0.2,0-0.5,0-0.7,0l-0.4-0.1
			c0-0.4-0.7-0.5-1.4-0.3c0,0,0-0.1,0-0.1c-0.1-0.6-0.2-1.2-0.2-1.8c0.2-0.1,0.5-0.2,0.7-0.3c0.2-0.1,0.3-0.2,0.3-0.4
			c0-0.1,0-0.1,0-0.2c0-0.2-0.4-0.2-0.5-0.2c-0.2,0-0.4,0-0.6,0c-0.1-1.3-0.1-2.6-0.1-4c0-0.8-2.8-0.3-2.8,0.8c0,1.8,0,3.6,0.2,5.4
			c-0.1,0-0.2,0-0.3,0c0-0.5,0-1,0-1.5c0-1.1-1.3-1.2-2.1-0.8c0.3-0.3,0.5-0.6,0.4-1c-0.4-1.4-0.8-2.8-1-4.3c-0.2-1.4-3-0.7-2.8,0.8
			c0.2,1.5,0.6,2.9,1,4.3c0.2,0.8,1.3,0.9,2.1,0.5c-0.2,0.2-0.4,0.5-0.4,0.8c0,0.2,0,0.4,0,0.6c-0.2-0.1-0.4-0.2-0.8-0.2
			c-1.1,0-1.7,0.9-1.4,1.5c-0.2,0-0.3-0.1-0.5-0.1c-0.4-1.3-0.7-2.5-0.7-3.9c0-0.9-1.3-1.1-2.1-0.7c0-0.1,0-0.1,0-0.2
			c-0.4-0.8-0.6-1.7-0.8-2.6c-0.3-1.4-3.2-0.6-2.8,0.8c0.2,0.6,0.3,1.3,0.5,1.9c0,0,0,0-0.1,0c-0.3,0.1-0.6,0.2-0.9,0.4
			c-0.8,0.1-1.8,0.6-1.8,1.2c0.1,0.5,0.1,1,0.2,1.4c-0.5,0.1-1.1,0.2-1.6,0.3c-0.3-0.8-0.5-1.6-0.6-2.5c-0.1-0.9-1.6-0.9-2.3-0.3
			c-0.8-2.1-1.8-4-3.1-5.8c-2.6-3.5-7.1-4.6-11.2-3.8c-1.9,0.4-3.7,1.2-5,2.7c-1.2,1.4-1.4,3.1-1.2,4.8c0.2,1.5,0.6,4,1.6,6
			c-0.4,0-0.7,0-0.9,0.1c-0.3,0.1-0.6,0.2-0.8,0.4c-1.9,0-3.9,0-5.8-0.1c-4.2-0.2-8.3-0.9-12.5-0.7c-0.9,0-1.5,0.7-1.5,1.3
			c-1,0.5-1.7,1.3-2.1,2.3c-1.7-1.2-3.5-2.3-5.3-3.2c-0.7-0.4-3.3,0.7-2.3,1.2c1.8,0.9,3.6,2.1,5.3,3.2c0.5,0.3,1.3,0.1,1.8-0.1
			c0,0,0.1,0,0.2-0.1c-0.3,1.4-0.2,3.1,0.2,4.5c0,0.1,0.1,0.2,0.2,0.3c0,0.3,0,0.7,0,1c0,0.1,0,0.1,0,0.2c-0.4,0.2-0.7,0.5-0.8,0.8
			c-0.2,1.4-0.3,2.8-0.3,4.3c-0.3,0.2-0.5,0.5-0.5,0.8c-0.2,3.4,0,6.7,0.5,10c0.2,2.7,0.7,5.4,1.2,8.1c0.1,0.4,0.1,0.8,0.2,1.3
			c-0.3,1.1-0.4,2.4-0.2,3.5c-0.9,0.2-1.7,0.9-1.2,1.6c0.8,1.2,1.6,2,2.6,2.7c-0.6-0.1-1.4,0.1-1.9,0.6c-0.8,0.8-1.7,1.5-2.5,2.4
			c-0.4,0.4-0.3,0.9,0.3,1.1c0.7,0.2,1.5-0.1,2-0.5c0.8-0.8,1.7-1.5,2.5-2.4c0.2-0.2,0.3-0.5,0.2-0.7c3.2,1.7,7.2,1.3,11.1,0.9
			c-0.9,1.6-1.5,3.3-2.2,5c-0.3,0.7,2.5,0.4,2.8-0.4c0.6-1.7,1.2-3.4,2.1-4.9c3.7,0.1,7.5,0.1,11.2,0.1c0.1,0.2,0.4,0.3,0.7,0.3
			c3.3,0.3,6.5-0.1,9.7-0.7c4.8-0.2,9.6-0.5,14.4-0.8c7.5-0.2,15.1-0.3,22.6-0.3c0.1,0.1,0.2,0.2,0.3,0.3c0.3,0.3,0.6,0.3,1,0.3
			c0.1,0,0.1,0,0.2,0c0.7,0,1.4,0.1,2.1,0.1c0.2,0,0.3,0.1,0.6,0c0,0,0,0,0,0c0.8,0.1,1.6,0.1,2.3,0.2c0.2,0.2,0.5,0.3,0.8,0.4
			c3.8,0.3,7.6,0.5,11.4,0.7c0.1,0.2,0.5,0.3,0.8,0.3c7.1,0.1,15.3,2.8,21.6-1.7c0.5-0.4,0.3-0.9-0.3-1c-0.1,0-0.2,0-0.3,0
			c0,0,0,0,0,0c1.2-2.8,2.2-5.7,2.9-8.6c0.4-0.2,0.6-0.5,0.6-0.9c0-1.2,0.2-2.4,0.4-3.7c0.2-0.9,0.3-1.8,0.4-2.7
			c0.4-2.2,0.8-4.4,1-6.6c2.3-1.2,4.5-2.4,6.6-3.8C146.6,31.6,144.2,30.9,143.2,31.6z M87.8,16.5c0,0-0.1,0.1-0.1,0.1
			c0.1-0.3,0.1-0.6,0.2-0.9c0,0,0.1,0,0.1,0C88,15.9,87.9,16.2,87.8,16.5z"/>
		<path d="M63.3,12.7c0.1,0.2,0.6,0.2,0.8,0.2c0.4,0,0.8-0.1,1.1-0.2c0.4-0.2,1.1-0.6,0.8-1.1c-0.4-0.6-0.6-1.2-1-1.8
			c-0.1-0.2-0.6-0.2-0.8-0.2c-0.4,0-0.8,0.1-1.1,0.2c-0.4,0.2-1.1,0.6-0.8,1.1C62.6,11.5,62.9,12.1,63.3,12.7z"/>
		<path d="M20.7,11c0.2,0.7,1.1,0.7,1.6,0.5c0.5-0.1,1.4-0.6,1.2-1.3c-0.2-0.6-0.4-1.3-0.9-1.8c-0.5-0.5-1.3-0.4-1.9-0.2
			c-0.4,0.2-1.2,0.8-0.7,1.4C20.4,10,20.5,10.4,20.7,11z"/>
		<path d="M30.7,14c0.8,0,3.1-1.3,1.2-1.3C31,12.7,28.8,14,30.7,14z"/>
		<path d="M122.6,12.4c0.3,0.1,0.7,0,1.1-0.1c0.3-0.1,0.7-0.2,0.9-0.5c0.4-0.4,0.7-0.7,1-1.2c0.1-0.2,0.2-0.4,0-0.6
			c-0.2-0.2-0.5-0.2-0.8-0.3c-0.4,0-0.8,0.1-1.1,0.2c-0.3,0.1-0.6,0.3-0.8,0.6c-0.1,0.2-0.2,0.4-0.4,0.5c0,0,0,0,0,0c0,0,0,0,0,0
			c-0.1,0.1-0.1,0.1-0.2,0.2c-0.2,0.2-0.3,0.4-0.3,0.6C122.1,12.2,122.3,12.3,122.6,12.4z"/>
		<path d="M135.9,17.8c0.6-0.1,1.4-0.2,1.9-0.7c1.3-1.1,2.6-2.3,3.6-3.7c0.3-0.4-1-0.2-1.1-0.2c-0.5,0.1-1.3,0.3-1.7,0.8
			c-0.9,1.3-2.2,2.4-3.4,3.4C134.7,17.8,135.6,17.8,135.9,17.8z"/>
		<path d="M146.7,45.1c-1.6,0-3.2,0-4.9,0c-0.6,0-1.5,0.5-1.6,1.1c-0.1,0.7,0.8,0.9,1.3,0.9c1.6,0,3.2,0,4.9,0
			c0.6,0,1.5-0.5,1.6-1.1C148.1,45.3,147.3,45.1,146.7,45.1z"/>
		<path d="M57,61.2c-0.5,0.1-1.4,0.3-1.6,0.8c-0.5,1.3-1,2.6-1.4,3.9c-0.2,0.7,2.6,0.3,2.8-0.5c0.4-1.3,0.8-2.6,1.4-3.9
			C58.4,61,57.2,61.2,57,61.2z"/>
		<path d="M61.6,63.8c-0.3,0-0.7,0.1-1,0.2c-0.3,0.1-0.7,0.2-1,0.4c-0.1,0.1-0.3,0.2-0.3,0.4c0,0.1,0,0.2,0,0.3
			c0,0.1-0.1,0.2-0.1,0.3c0,0,0,0,0,0c-0.1,0.1-0.1,0.2,0,0.3c0.2,0.1,0.5,0.1,0.7,0.1c0.4,0,0.7-0.1,1.1-0.3
			c0.2-0.1,0.6-0.2,0.8-0.4c0.1-0.2,0.2-0.3,0.3-0.5c0-0.2,0-0.4,0-0.5C62.1,63.8,61.7,63.8,61.6,63.8z"/>
		<path d="M116.7,67.5c-0.4-0.7-3,0.3-2.8,0.8c0.8,1.6,1.9,3.1,2.9,4.7c0.4,0.7,3-0.4,2.8-0.8C118.6,70.7,117.5,69.2,116.7,67.5z"/>
		<path d="M120.7,65.2c-0.3-0.6-1.1-0.6-1.6-0.4c-0.4,0.1-1.5,0.6-1.2,1.2c0.4,0.8,0.8,1.6,1.2,2.4c0.3,0.6,1.1,0.6,1.6,0.4
			c0.4-0.1,1.5-0.6,1.2-1.2C121.5,66.7,121.1,65.9,120.7,65.2z"/>
		<path d="M5.7,43.4c-1.5,0.4-3,0.6-4.5,1C0.6,44.5-0.2,45,0,45.7c0.2,0.7,1.1,0.7,1.7,0.6c1.5-0.4,3-0.6,4.5-1
			c0.5-0.1,1.3-0.7,1.2-1.3C7.1,43.3,6.2,43.3,5.7,43.4z"/>
	</g>
</g>
<g id="Layer_1_1_" fill="#ffffff">
	<g>
		<path class="st0" d="M43.8,40.1c-0.1-2.7-0.5-5.4-0.5-8.1c0-2.2,0.4-4.5-0.4-6.6c0-0.2,0.1-0.5,0.1-0.7c0.2-1.1-3.3-0.5-3.8,0.5
			c-0.3,0.3-0.5,0.6-0.4,1c0,0.1,0.1,0.2,0.1,0.3c-0.7,3.2-1.6,6.4-2.6,9.5c-0.4,1.2-0.9,2.4-1.3,3.6c-0.6-1.1-1.2-2.2-1.7-3.4
			c-1.4-3.5-2.6-7-4.3-10.3c0.2-1.5-3.2-1.4-3.9,0c-0.8,1.7-0.7,3.4-0.4,5.3c0.3,2.1,0.4,4.1,0.4,6.2c0,4,0.4,8,0.4,12
			c-0.4,0.4-0.5,0.9-0.1,1.4c0.2,0.2,0.4,0.4,0.6,0.6c0.9,0.7,3.5,0.1,3.5-1.3c0-4.2-0.3-8.3-0.4-12.5c0-0.4,0-0.8,0-1.2
			c0.1,0.1,0.1,0.3,0.2,0.4c0.6,1.6,1.3,3.2,2.2,4.7c0.9,1.5,1.3,3.1,1.8,4.7c-0.2,0.2-0.3,0.5-0.2,0.7c0,0.2,0.1,0.3,0.3,0.4
			c0.6,0.6,1.9,0.3,2.5,0c0.3-0.1,0.6-0.3,0.8-0.4c0.3-0.2,0.9-0.7,0.7-1.2c0-0.1-0.1-0.2-0.1-0.3c0.5-1.3,0.7-2.6,1-4
			c0.3-1.4,0.8-2.8,1.3-4.2c0.1,0.6,0.1,1.3,0.2,1.9c0.2,2.6,0,5.1,0,7.7c0,0.9,0.1,1.6,0.2,2.5c0.1,0.3,0.4,1.8,0.3,1.9
			c-0.6,0.6-0.4,1.3,0.4,1.4c0.9,0.2,2.1-0.1,2.8-0.7c1.2-1.1,0.6-2.9,0.4-4.3C43.3,45.2,43.8,42.5,43.8,40.1z"/>
		<path class="st0" d="M52.2,40.8c-0.1-2-0.8-3.9-0.8-5.9c0-2.3,0.2-4.6-0.2-6.9c-0.1-0.7-4.1,0.1-4,1.1c0.3,2.1,0.2,4.3,0.2,6.4
			c0,2.1,0.5,3.9,0.7,6c0.3,2.1-0.1,4.2,0.1,6.3c0.1,1,0.8,2.8,0.1,3.6c-0.4,0.5,1.5,0.3,1.6,0.3c0.8-0.1,1.8-0.4,2.3-1
			c0.7-0.8,0.2-2.4,0.1-3.4C52.1,45,52.3,42.9,52.2,40.8z"/>
		<path class="st0" d="M68.7,37.4c-2.1-2.8-5.9-0.8-8.6-1.6c-1.4-0.4-1.4-2.3-1.4-3.4c0-1.4-0.1-2.8-0.3-4.2c-0.1-1.1,0-2.1,0.8-2.9
			c0.1-0.1,0.9-0.3,0.8-0.3c0.4-0.1,0.7-0.1,1.1-0.1c1.6-0.1,4.7,0.2,4.1,2.5c-0.3,1,3.6,0.4,3.9-0.6c1.2-4.6-7.4-3.7-9.8-3.1
			c-2.2,0.6-4.7,1.9-4.8,4.4c-0.1,1.2,0.3,2.4,0.3,3.6c0.1,1.4-0.2,2.8,0.3,4.2c1.1,3,5.6,1.6,7.8,1.8c3.9,0.3,2.7,5.5,2.8,8
			c0,1.3,1.2,3.5,0.2,4.5c-0.6,0.7-2,0.7-2.8,0.8c-0.8,0.1-2.2,0.3-2.8-0.5c-1-1.4,0.1-3.8-0.1-5.5C60,44,56,44.9,56.2,46
			c0.3,2.7-1.4,6.2,2.4,6.7c2.5,0.3,5.2-0.2,7.6-0.9c1.2-0.4,2.3-1,3.3-1.8c1-0.9,0.7-2.4,0.4-3.6C69.2,43.4,70.6,40,68.7,37.4z"/>
		<path class="st0" d="M86.2,37.2c-0.1-3.8-0.7-7.6-0.7-11.4c0-2-4-1.3-4,0.3c0,3.6,0.5,7.2,0.7,10.9c0,0.1,0,0.1,0,0.2
			c-2,0-3.9,0.2-5.9,0.2c0.2-4.7-0.6-9.3-0.4-14c0-0.6-3.9-0.1-4,1.1c-0.2,4.5,0.6,9,0.5,13.5c-0.1,2.2-0.2,4.3-0.3,6.5
			c0,1.1,0.2,2.2,0.3,3.3c0.1,1,0.5,2.4,0.2,3.3c-0.2,0.8,3.6,0.3,3.9-0.7c0.5-1.8-0.2-4.1-0.4-5.9c-0.2-1.7,0-3.5,0.1-5.3
			c2-0.1,4.1-0.3,6.1,0c0.1,1.4,0.2,2.8,0.3,4.2c0.1,1.2,0.2,2.3,0.2,3.5c0,1,0.1,2.5-0.2,3.5c-0.8,2.1,3.2,1.9,3.8,0.4
			c0.7-1.9,0.5-4.2,0.4-6.2C86.6,42.2,86.2,39.7,86.2,37.2z"/>
		<path class="st0" d="M103.2,41.8c-0.9-2.8-2.4-5.2-3.6-7.9c1-2,2-3.9,3-5.9c0.8-1.8,1.5-3.9,3.1-5.1c0.6-0.5,0.6-0.9-0.3-1
			c-0.9-0.1-2.1,0.2-2.8,0.7c-1.5,1.2-2.4,2.6-3.2,4.3C98.4,29,97.5,31,96.4,33c-0.1,0.1-0.2,0.3-0.2,0.4c-0.5,0.3-0.8,0.8-0.6,1.3
			c-0.8,1.6-1.6,3.1-2.5,4.7c-0.3-5.6-1-11.2-1.2-16.8c0-1.3-4-0.5-4,1.1c0.2,6.9,1.2,13.8,1.3,20.8c0,0,0,0,0,0.1
			c-0.3,0.3-0.2,0.5,0.1,0.6c0,1.8-0.1,3.5-0.2,5.3c-0.5,0.8,0.5,1.1,1.1,1.1c0,0,0.1,0,0.1,0c0.7,0,2.6-0.4,2.7-1.4
			c0.2-2.1,0.3-4.2,0.2-6.3c1.6-1.7,2.9-3.7,4.1-5.7c0.8,1.5,1.5,3,2,4.6c0.9,2.8,2.3,5.3,3.2,8.1c0.5,1.8,4.5,0.7,4-1.1
			C105.6,47.1,104.2,44.5,103.2,41.8z"/>
		<path class="st0" d="M127,37.1c-0.2-0.8-1.4-0.9-2.3-0.8c0-0.3,0-0.7,0-1c-0.1-2.7-0.2-5.4-0.4-8.1c-0.2-2.5-1.6-3.4-4-3.3
			c-2.4,0.1-5.3,0.5-7.6,1.4c-2.6,1-4.1,3-4.6,5.7c-0.6,3,0.2,6.3,0.4,9.3c0.2,3.5,0.1,7.1,0.1,10.6c0,0.6,4,0,4-1.1
			c0-2.8,0-5.6,0-8.4c0-0.8-0.1-1.6-0.1-2.5c1.4-0.6,3.7,0,5.1,0.1c1.1,0.1,2.2-0.2,3.3-0.3c0,2.3,0.1,4.7,0.2,7
			c0,1.2,0.5,3.6-0.4,4.6c-0.4,0.5,1.5,0.3,1.6,0.3c0.8-0.1,1.8-0.4,2.3-1.1c1-1.1,0.5-3.8,0.4-5.2c-0.1-1.9-0.1-3.9-0.1-5.8
			C125.9,38.7,127.2,37.9,127,37.1z M112.2,36.9c-0.1-1.3-0.2-2.5-0.3-3.8c-0.2-2.4,0.1-5.6,2.3-7.1c0.6-0.4,1.7-0.3,2.4-0.4
			c1-0.2,2-0.4,2.9,0.2c1.2,0.8,0.9,3.7,0.9,4.9c0,2,0.2,4,0.3,6.1c-0.6,0.1-1.1,0.1-1.7,0.1C116.7,36.8,114.4,36.5,112.2,36.9z"/>
		<path class="st0" d="M48.8,25.2c0.5-0.1,1.1-0.2,1.5-0.5c0.1-0.1,0.2-0.1,0.3-0.2c0.5-0.3,1-0.8,0.7-1.4c-0.5-1.1-0.4-2.3-0.4-3.4
			c0-1-1-1.3-1.8-1.2c-0.7,0.1-2.2,0.6-2.2,1.5c0,1-0.1,2,0.1,3c0,0.1-0.1,0.2-0.1,0.4c-0.1,0.2,0,0.4,0.1,0.6c0,0,0,0.1,0,0.1
			c0,0.1,0,0.2,0,0.3c0.1,0.2,0.2,0.4,0.4,0.5C47.8,25.2,48.3,25.2,48.8,25.2z"/>
	</g>
</g>
</svg>
