<?xml version="1.0" encoding="utf-8"?>
<svg version="1.1" id="Layer_2" xmlns="http://www.w3.org/2000/svg" xmlns:xlink="http://www.w3.org/1999/xlink" x="0px" y="0px"
	 viewBox="0 0 24.8 24.3" style="enable-background:new 0 0 24.8 24.3;" xml:space="preserve" width="25" height="24" fill="#62d1ba">
<g>
	<g id="UrwUhy_2_">
		<g>
			<path d="M17.3,24.3c-0.4,0-0.7,0-1.1,0c-4.9-0.6-8.5-2.9-11.1-5.8C2.5,15.6,0.4,11.9,0,6.8c0-0.5,0-0.9,0-1.4
				c0.1-0.9,0.5-1.5,1.1-2.1c0.6-0.7,1.6-1.5,2.5-1.6c0.7,0,1.8,0.5,2.2,1.1c0.4,0.5,0.6,1.6,0.8,2.4C6.8,6.1,7.2,7.2,7.1,8
				c-0.2,1.2-1.8,1.7-2.2,2.6c1.6,3.7,4.1,6.5,7.5,8.3c0.8-0.5,1.6-1.9,2.8-1.9c0.4,0,1,0.2,1.4,0.3c0.5,0.1,0.9,0.3,1.3,0.5
				c0.7,0.3,2,0.6,2.4,1.2c0.4,0.6,0.7,1.6,0.6,2.2C20.6,22.5,18.5,23.9,17.3,24.3z"/>
		</g>
	</g>
	<path d="M12.5,1.5c5.9,0,10.8,4.8,10.8,10.8h1.5C24.8,5.5,19.3,0,12.5,0V1.5z"/>
	<path d="M12.5,9.3v1.6c0.8,0,1.4,0.6,1.4,1.4h1.6C15.5,10.7,14.2,9.3,12.5,9.3z"/>
	<path d="M12.5,6.2c3.3,0,6.1,2.7,6.1,6.1h1.6c0-4.2-3.4-7.6-7.6-7.6V6.2z"/>
</g>
</svg>
