<?xml version="1.0" encoding="utf-8"?>
<svg version="1.1" id="Layer_1" xmlns="http://www.w3.org/2000/svg" xmlns:xlink="http://www.w3.org/1999/xlink" x="0px" y="0px"
	 viewBox="0 0 17.6 17.6" style="enable-background:new 0 0 17.6 17.6;" xml:space="preserve" fill="#63d1bb">
<path class="st0" d="M17.3,15.7l-3.4-3.4c1-1.3,1.5-2.9,1.5-4.6C15.4,3.4,12,0,7.7,0S0,3.4,0,7.7c0,4.3,3.4,7.7,7.7,7.7
	c1.7,0,3.3-0.6,4.6-1.5l3.4,3.4c0.2,0.2,0.4,0.3,0.8,0.3c0.6,0,1.1-0.5,1.1-1.1C17.6,16.3,17.5,16,17.3,15.7z M2.2,7.7
	c0-3,2.5-5.5,5.5-5.5s5.5,2.5,5.5,5.5s-2.5,5.5-5.5,5.5S2.2,10.7,2.2,7.7z"/>
</svg>
