<?xml version="1.0" encoding="utf-8"?>
<svg version="1.1" id="Layer_1" xmlns="http://www.w3.org/2000/svg" xmlns:xlink="http://www.w3.org/1999/xlink" x="0px" y="0px"
	 viewBox="226 226.2 60 59.6" style="enable-background:new 226 226.2 60 59.6;" xml:space="preserve" width="61" height="61" fill="#149080">
<path class="st0" d="M226,269.9l27.4,15.9v-23.3L226,246.5V269.9z M277.3,238.6v2.5c0,1.8-3.5,3.3-7.7,3.3c-4.3,0-7.7-1.5-7.7-3.3
	V237h0c0.3,1.7,3.6,3.1,7.7,3.1c4.3,0,7.7-1.5,7.7-3.3c0-1.8-3.5-3.3-7.7-3.3c-0.3,0-0.7,0-1,0l-5-2.9v3.1c0,1.8-3.5,3.3-7.7,3.3
	c-2.7,0-5-0.6-6.4-1.5c-0.2-0.2-0.4-0.4-0.7-0.6c-0.4-0.4-0.6-0.8-0.6-1.2v-3l-4.8,2.8c-0.3,0-0.7,0-1.1,0c-4.3,0-7.7,1.5-7.7,3.3
	c0,1.8,3.5,3.3,7.7,3.3c4.1,0,7.4-1.4,7.7-3.1h0v4.1c0,1.8-3.5,3.3-7.7,3.3c-4.3,0-7.7-1.5-7.7-3.3v-2.4l-6,3.5l27.5,16l27.4-15.9
	L277.3,238.6z M263.7,248.8c0,1.8-3.5,3.3-7.7,3.3c-4.3,0-7.7-1.5-7.7-3.3v-4.1h0c0.3,1.7,3.6,3.1,7.7,3.1c4.1,0,7.4-1.4,7.7-3.1h0
	V248.8L263.7,248.8z M258.6,262.7v23.1l27.4-15.9v-23.1L258.6,262.7z M255.9,232.8c4.3,0,7.7-1.5,7.7-3.3c0-1.8-3.5-3.3-7.7-3.3
	c-4.3,0-7.7,1.5-7.7,3.3C248.2,231.3,251.6,232.8,255.9,232.8"/>
</svg>
