<?xml version="1.0" encoding="utf-8"?>
<svg version="1.1" id="Layer_1" xmlns="http://www.w3.org/2000/svg" xmlns:xlink="http://www.w3.org/1999/xlink" x="0px" y="0px"
	 viewBox="52.3 53.8 23.5 20.2" style="enable-background:new 52.3 53.8 23.5 20.2;" xml:space="preserve">
<g id="twitter">
	<g>
		<path class="st0" d="M75.7,57.9c-0.2-0.4-0.9-0.3-1.4-0.4h-1.1c0.1-0.4,0.3-0.6,0.5-1c0.1-0.4,0.3-0.7,0.2-1.3
			c0.1-0.2,0.2-0.4,0.3-0.6c0.1-0.1,0.2-0.5,0.1-0.7c-0.1-0.2-0.3-0.2-0.6-0.2c-0.1,0-0.2,0.1-0.2,0.1c-0.4,0.4-0.8,1-1.3,1.4
			c0,0-0.1,0-0.1,0c-0.1,0,0,0-0.1,0.1c-0.1,0.1-0.3,0.2-0.4,0.2c-0.3,0.2-0.5,0.4-0.9,0.5c-0.5-0.2-1.2-0.3-1.9-0.4
			c-1.2,0.1-2.3,0.2-3,0.7c-0.9,0.3-1.5,1-2.1,1.6c0,0.3-0.3,0.4-0.4,0.7c0,0,0,0.1-0.1,0.1c0,0.2-0.1,0.3-0.1,0.5
			c0,0.1,0.2,0.4,0,0.5c-0.8-0.1-1.5-0.6-2.1-1c-0.7-0.4-1.5-0.6-2.1-1.1c-0.7-0.3-1.3-0.8-1.8-1.3c-0.2-0.3-0.5-0.5-0.7-0.9
			c-0.4-0.2-0.2-0.9-0.7-0.9c-0.3,0-0.3,0.2-0.4,0.4c-0.1,0.2-0.4,0.2-0.4,0.5c0,0,0,0.1-0.1,0.1c-0.2,1.1-0.5,2-0.5,3.3
			c0.1,0.4,0.3,0.7,0.6,1c-0.4,0.1-0.7,0.2-0.9,0.5c-0.1,1.1,0.4,1.6,0.7,2.3c0.1,0.4,0.4,0.7,0.6,1c0,0.2,0.2,0.3,0.3,0.4
			c0,0.1,0.1,0.1,0.1,0.2c0,0.1,0.3,0.2,0.1,0.2c-0.4,0.1-1,0.1-1.3,0.4c-0.1,0.3-0.1,0.8,0,1.1c0,0.2,0.3,0.3,0.3,0.5
			c0.5,0.4,1.1,0.7,1.6,1.1c0.6,0.2,1.2,0.3,1.9,0.4c-0.1,0.3-0.3,0.6-0.6,0.7c-0.8,0.4-1.8,0.5-2.7,0.7c-0.6,0-1,0.2-1.6,0.2
			c-0.3,0.1-0.9,0.1-1.1,0.2c-0.1,0.1-0.1,0.1-0.2,0.2c-0.1,0.4,0.1,0.7,0.4,0.9c0,0.3,0.2,0.3,0.4,0.4c0.1,0.2,0.3,0.3,0.4,0.4
			c0.5,0.5,1.3,0.8,1.9,1.1c0.8,0.2,1.6,0.4,2.5,0.5c0.9,0.1,1.9,0.1,2.8,0.2h1c0.5,0.1,1.2,0.1,1.9,0.1c0.1-0.1,0.3-0.1,0.5-0.1
			c0.5-0.3,1.2-0.4,1.6-0.7c0.6-0.2,1-0.6,1.6-0.9c0.9-0.8,1.9-1.3,2.5-2.4c0.2-0.2,0.4-0.4,0.4-0.7c0.3-0.2,0.4-0.5,0.6-0.7
			c0.4-0.4,0.7-0.9,1-1.4c0.3-0.5,0.6-1.1,0.9-1.6c0-0.4,0.3-0.5,0.3-0.9c0.2-0.2,0.2-0.7,0.4-0.9c0-0.3,0-0.4,0.1-0.6
			c0-1.3,0-2.4-0.3-3.4c0.6-0.2,1.2-0.3,1.6-0.6C75.4,58.9,75.9,58.5,75.7,57.9z M72.3,61.9c-0.2,0.9-0.6,1.4-1,2
			c0.1,0.4-0.1,0.5-0.1,0.9c-0.2,0.3-0.3,0.7-0.4,1c-0.2,0.3-0.3,0.6-0.5,0.9c-0.4,0.5-0.8,1.1-1.2,1.6c-0.4,0.6-0.9,1-1.3,1.5
			c-0.4,0.5-0.9,0.9-1.4,1.3c-0.5,0.2-0.9,0.4-1.3,0.7c-0.2,0.1-0.5,0.2-0.7,0.3c-0.2,0.1-0.5,0.1-0.7,0.3c-1.1,0.1-2.3,0.2-3.6,0.1
			c-1-0.1-2.1-0.2-3-0.4c-0.9-0.2-1.5-0.7-2.3-1c0.2-0.2,0.6-0.2,1-0.2c0-0.2,0.4,0,0.4-0.1c0.3,0.1,0.3-0.1,0.5-0.1
			c0.6-0.2,1.2-0.3,1.7-0.6c0.3-0.1,0.4-0.4,0.7-0.6c0-0.2,0.1-0.3,0.2-0.4c0-0.3,0.2-0.4,0.1-0.8c0.1-0.2,0.3-0.3,0.3-0.7
			c-0.1-0.1-0.1-0.3-0.3-0.4c0-0.2-0.4-0.1-0.4-0.2c-0.3,0-0.4,0-0.6-0.1c-0.2,0-0.5,0.1-0.5-0.1c-0.8,0-1.3-0.4-1.9-0.7
			c0.4-0.3,1-0.4,1.3-0.7c0.5-0.1,1.1-0.1,1.1-0.7c0-0.7-0.8-0.7-1.3-0.8c-0.8-0.7-1.2-1.7-1.8-2.5c0.2-0.2,0.6-0.2,0.7-0.4
			c0.5,0.1,0.5-0.3,0.7-0.5c0-0.5-0.3-0.6-0.6-0.8c-0.3-0.2-0.5-0.5-0.7-0.7c0-0.8,0-1.7,0.1-2.4c0.1,0,0.1,0,0.1,0.1
			c0.2,0.4,0.6,0.8,0.8,1.2c0.5,0.4,0.9,0.9,1.6,1.1c0.5,0.4,1.1,0.6,1.6,1c0.6,0.3,1.2,0.6,1.7,0.9c0.7,0.2,1.1,0.7,2,0.6
			c0.2-0.1,0.4-0.2,0.6-0.3c0.3-0.5-0.1-1.1,0.1-1.6c0.3-0.7,0.8-1,1.3-1.5c0.3-0.2,0.6-0.3,0.8-0.5c0.3-0.1,0.7-0.2,1-0.4
			c0.4,0,0.7-0.1,1-0.1h1.3c0.2,0.1,0.5,0.1,0.7,0.1c0.2,0.1,0.4,0.3,0.7,0.4c0.8,0.7,1.3,1.7,1.4,3C72.2,60.9,72.3,61.3,72.3,61.9z
			 M72.6,56.3c-0.1,0.3-0.2,0.7-0.6,0.8c0-0.1-0.1-0.1-0.1-0.2c0-0.2,0.2-0.2,0.3-0.3C72.3,56.5,72.4,56.3,72.6,56.3
			C72.6,56.2,72.7,56.3,72.6,56.3z M67.1,59.3c0.2,0.1,0.3,0.3,0.5,0.4c0.1,0.2,0.3,0.3,0.6,0.4c0-0.2,0.3,0,0.4-0.2
			c0.2,0,0.2-0.2,0.3-0.3c0-0.5-0.1-1-0.4-1.3C67.8,57.8,66.8,58.3,67.1,59.3z"/>
	</g>
</g>
</svg>
