<?xml version="1.0" encoding="utf-8"?>
<svg version="1.1" id="Layer_1" xmlns="http://www.w3.org/2000/svg" xmlns:xlink="http://www.w3.org/1999/xlink" x="0px" y="0px"
	 viewBox="0 0 32 32" style="enable-background:new 0 0 32 32;" xml:space="preserve" fill="#63d1bb">
<g transform="translate(0 192)">
	<path d="M26-177l6-4v16l-6-4V-177z M24-177v8c0,2.2-1.8,4-4,4H4c-2.2,0-4-1.8-4-4v-8c0-2.2,1.8-4,4-4h10c0-1.1,0.9-2,2-2v-2H5
		c-0.6,0-1-0.4-1-1c0-0.6,0.4-1,1-1h12c0.6,0,1,0.4,1,1v3c1.1,0,2,0.9,2,2C22.2-181,24-179.2,24-177z M12-177H4v8h8V-177z M20-176
		c0-0.6-0.4-1-1-1h-4c-0.6,0-1,0.4-1,1c0,0.6,0.4,1,1,1h4C19.6-175,20-175.4,20-176z"/>
</g>
</svg>
