<?xml version="1.0" encoding="utf-8"?>
<svg version="1.1" id="Layer_1" xmlns="http://www.w3.org/2000/svg" xmlns:xlink="http://www.w3.org/1999/xlink" x="0px" y="0px"
	 viewBox="0 0 1150 34" style="enable-background:new 0 0 1150 34;" xml:space="preserve" fill="#ffffff">
<path d="M1121.3,0c-14.4,0-14.4,14-28.7,14s-14.4-14-28.7-14s-14.4,14-28.7,14c-14.4,0-14.4-14-28.8-14c-14.4,0-14.4,14-28.7,14
	c-14.4,0-14.4-14-28.7-14c-14.4,0-14.4,14-28.7,14S905.6,0,891.3,0c-14.4,0-14.4,14-28.7,14S848.1,0,833.8,0
	c-14.4,0-14.4,14-28.7,14c-14.4,0-14.4-14-28.8-14c-14.4,0-14.4,14-28.7,14c-14.4,0-14.4-14-28.7-14S704.4,14,690,14
	c-14.4,0-14.4-14-28.7-14c-14.4,0-14.4,14-28.7,14c-14.4,0-14.4-14-28.8-14c-14.4,0-14.4,14-28.7,14c-14.4,0-14.4-14-28.7-14
	c-14.4,0-14.4,14-28.7,14c-14.4,0-14.4-14-28.7-14c-14.4,0-14.4,14-28.8,14c-14.4,0-14.4-14-28.8-14c-14.4,0-14.4,14-28.8,14
	c-14.4,0-14.4-14-28.8-14c-14.4,0-14.4,14-28.8,14c-14.4,0-14.4-14-28.8-14s-14.4,14-28.8,14c-14.4,0-14.4-14-28.8-14
	c-14.4,0-14.4,14-28.7,14c-14.4,0-14.4-14-28.8-14c-14.4,0-14.4,14-28.8,14c-14.4,0-14.4-14-28.8-14c-14.4,0-14.4,14-28.8,14
	c-14.4,0-14.4-14-28.8-14C71.9,0,71.9,14,57.5,14C43.1,14,43.1,0,28.8,0S14.4,14,0,14v20h1150V14C1135.6,14,1135.6,0,1121.3,0z"/>
</svg>
