<svg xmlns="http://www.w3.org/2000/svg" xmlns:xlink="http://www.w3.org/1999/xlink" preserveAspectRatio="xMidYMid" width="107.624" height="36.688" viewBox="0 0 107.624 36.688">
  <defs>
    <style>
      .cls-1 {
        fill: #f0eed5;
        fill-rule: evenodd;
      }
    </style>
  </defs>
  <path d="M103.727,29.188 C102.828,31.348 101.653,32.074 100.391,32.074 C100.028,32.074 99.665,32.023 99.302,31.936 L99.302,30.363 C99.579,30.450 99.873,30.484 100.149,30.484 C101.048,30.484 101.722,29.845 102.206,28.549 L102.379,28.134 L98.438,19.769 L100.408,19.769 L103.208,26.025 L105.680,19.769 L107.615,19.769 L103.727,29.188 ZM95.673,22.932 C95.673,21.860 95.033,21.187 94.031,21.187 C93.115,21.187 92.406,21.791 91.974,22.310 C91.992,22.500 92.009,22.690 92.009,22.880 L92.009,28.065 L90.160,28.065 L90.160,22.932 C90.160,21.860 89.520,21.187 88.518,21.187 C87.516,21.187 86.755,21.912 86.323,22.465 L86.323,28.065 L84.474,28.065 L84.474,19.769 L86.116,19.769 L86.116,20.806 C86.565,20.305 87.533,19.545 88.881,19.545 C90.125,19.545 90.989,20.063 91.473,20.875 C92.199,20.149 93.167,19.545 94.377,19.545 C96.571,19.545 97.522,21.169 97.522,22.880 L97.522,28.065 L95.673,28.065 L95.673,22.932 ZM76.351,24.608 C76.558,26.095 78.010,26.717 79.531,26.717 C80.533,26.717 81.449,26.475 82.158,26.129 L82.158,27.719 C81.398,28.083 80.343,28.289 79.185,28.289 C76.645,28.289 74.484,26.838 74.484,23.917 C74.484,20.910 76.766,19.545 78.684,19.545 C81.985,19.545 83.126,22.206 82.590,24.608 L76.351,24.608 ZM78.770,21.083 C77.526,21.083 76.403,21.826 76.334,23.226 L80.931,23.226 C81.035,22.500 80.585,21.083 78.770,21.083 ZM71.028,26.752 C70.388,27.563 69.403,28.289 67.848,28.289 C65.342,28.289 63.735,26.302 63.735,23.917 C63.735,21.532 65.342,19.545 67.848,19.545 C69.300,19.545 70.267,20.184 70.837,20.841 L70.837,15.967 L72.687,15.967 L72.687,28.065 L71.028,28.065 L71.028,26.752 ZM70.820,22.897 C70.423,21.999 69.473,21.169 68.176,21.169 C66.690,21.169 65.601,22.293 65.601,23.917 C65.601,25.541 66.690,26.665 68.176,26.665 C69.473,26.665 70.423,25.835 70.820,24.919 L70.820,22.897 ZM70.837,1.442 L72.687,1.442 L72.687,13.540 L70.837,13.540 L70.837,1.442 ZM66.283,8.407 C66.283,7.336 65.644,6.661 64.641,6.661 C63.725,6.661 63.017,7.266 62.585,7.785 C62.602,7.975 62.619,8.165 62.619,8.355 L62.619,13.540 L60.770,13.540 L60.770,8.407 C60.770,7.336 60.131,6.661 59.128,6.661 C58.126,6.661 57.365,7.387 56.933,7.940 L56.933,13.540 L55.084,13.540 L55.084,5.244 L56.726,5.244 L56.726,6.281 C57.175,5.780 58.143,5.020 59.491,5.020 C60.735,5.020 61.600,5.538 62.083,6.350 C62.809,5.624 63.777,5.020 64.987,5.020 C67.182,5.020 68.132,6.644 68.132,8.355 L68.132,13.540 L66.283,13.540 L66.283,8.407 ZM57.789,21.152 C56.562,21.152 55.543,21.463 54.799,21.791 L54.799,20.098 C55.456,19.873 56.649,19.545 57.979,19.545 C60.330,19.545 61.816,20.668 61.816,23.174 L61.816,26.147 C61.816,26.613 62.093,26.752 62.421,26.752 C62.611,26.752 62.801,26.699 62.974,26.648 L62.974,27.978 C62.628,28.116 62.214,28.186 61.799,28.186 C61.038,28.186 60.434,27.892 60.140,27.218 C59.327,27.875 58.308,28.289 57.011,28.289 C55.508,28.289 54.108,27.460 54.108,25.749 C54.108,23.623 56.078,22.967 57.807,22.967 C58.515,22.967 59.310,23.070 59.967,23.208 L59.967,22.915 C59.967,21.878 59.206,21.152 57.789,21.152 ZM58.170,24.263 C57.115,24.263 56.009,24.591 56.009,25.628 C56.009,26.440 56.735,26.855 57.565,26.855 C58.446,26.855 59.310,26.526 59.967,25.870 L59.967,24.470 C59.466,24.366 58.757,24.263 58.170,24.263 ZM47.878,11.017 L47.878,6.869 L46.392,6.869 L46.392,5.244 L47.878,5.244 L47.878,2.739 L49.710,2.289 L49.710,5.244 L52.717,5.244 L52.717,6.869 L49.710,6.869 L49.710,10.671 C49.710,11.760 50.211,12.123 51.283,12.123 C51.888,12.123 52.441,12.002 52.959,11.794 L52.959,13.385 C52.337,13.609 51.542,13.747 50.730,13.747 C49.122,13.747 47.878,12.952 47.878,11.017 ZM50.306,19.545 C51.239,19.545 52.138,19.752 52.864,20.184 L52.864,21.878 C52.259,21.446 51.412,21.187 50.565,21.187 C49.096,21.187 47.610,21.964 47.610,23.917 C47.610,25.801 49.044,26.648 50.531,26.648 C51.412,26.648 52.294,26.388 52.950,26.008 L52.950,27.719 C52.155,28.099 51.257,28.289 50.202,28.289 C47.990,28.289 45.726,26.941 45.726,23.986 C45.726,20.893 48.094,19.545 50.306,19.545 ZM42.131,27.218 C41.319,27.875 40.300,28.289 39.003,28.289 C37.500,28.289 36.100,27.460 36.100,25.749 C36.100,23.623 38.070,22.967 39.798,22.967 C40.507,22.967 41.302,23.070 41.959,23.208 L41.959,22.915 C41.959,21.878 41.198,21.152 39.781,21.152 C38.554,21.152 37.534,21.463 36.791,21.791 L36.791,20.098 C37.448,19.873 38.640,19.545 39.971,19.545 C42.321,19.545 43.808,20.668 43.808,23.174 L43.808,26.147 C43.808,26.613 44.085,26.752 44.413,26.752 C44.603,26.752 44.793,26.699 44.966,26.648 L44.966,27.978 C44.620,28.116 44.205,28.186 43.791,28.186 C43.030,28.186 42.425,27.892 42.131,27.218 ZM41.959,24.470 C41.457,24.366 40.749,24.263 40.161,24.263 C39.107,24.263 38.001,24.591 38.001,25.628 C38.001,26.440 38.727,26.855 39.556,26.855 C40.438,26.855 41.302,26.526 41.959,25.870 L41.959,24.470 ZM42.797,8.649 C42.797,7.301 41.967,6.661 40.861,6.661 C39.807,6.661 39.012,7.370 38.545,8.044 L38.545,13.540 L36.696,13.540 L36.696,1.442 L38.545,1.442 L38.545,6.160 C39.150,5.538 40.101,5.020 41.224,5.020 C43.315,5.020 44.646,6.437 44.646,8.407 L44.646,13.540 L42.797,13.540 L42.797,8.649 ZM-0.001,28.065 L-0.001,1.518 L14.483,-0.000 L14.635,0.015 L28.967,1.518 L28.967,28.065 L14.483,36.683 L-0.001,28.065 ZM27.072,3.224 L14.483,1.904 L1.894,3.224 L1.894,13.183 L14.412,5.730 L14.412,5.728 L14.414,5.729 L14.415,5.728 L14.415,5.730 L27.072,13.192 L27.072,3.224 ZM14.446,18.236 L17.636,20.115 L17.660,20.101 L18.657,19.434 L14.433,16.922 L14.446,15.610 L19.796,18.793 L20.717,18.250 L20.857,18.168 L20.914,18.134 L14.433,14.280 L14.446,12.968 L22.028,17.478 L23.618,16.542 L27.062,14.512 L14.412,7.140 L14.412,7.139 L1.921,14.647 L14.394,22.062 L16.527,20.781 L14.433,19.548 L14.446,18.236 ZM27.072,15.924 L23.188,18.243 L23.188,21.540 L23.188,22.081 L23.188,22.531 L23.199,22.525 L23.199,23.844 L14.483,29.059 L5.850,23.870 L5.862,22.558 L14.493,27.692 L14.471,26.304 L5.838,21.115 L5.851,19.802 L14.450,24.920 L14.429,23.568 L1.894,16.107 L1.894,26.988 L14.483,34.479 L27.072,26.988 L27.072,15.924 Z" class="cls-1"/>
</svg>
