<svg version="1.0" id="Layer_1" xmlns="http://www.w3.org/2000/svg" xmlns:xlink="http://www.w3.org/1999/xlink" x="0px" y="0px" width="46" height="57" viewBox="0 0 46.21 56.753" enable-background="new 0 0 46.21 56.753" xml:space="preserve">
  <path fill="#FFFFFF" d="M38.593,30.15c0.081,8.59,7.535,11.447,7.617,11.483c-0.062,0.202-1.19,4.073-3.927,8.072 c-2.365,3.457-4.82,6.901-8.688,6.973c-3.799,0.07-5.021-2.253-9.365-2.253c-4.344,0-5.702,2.182-9.298,2.32 c-3.733,0.142-6.576-3.739-8.961-7.184c-4.875-7.046-8.598-19.91-3.597-28.593c2.484-4.313,6.925-7.043,11.743-7.114 c3.666-0.069,7.126,2.466,9.366,2.466c2.241,0,6.444-3.049,10.865-2.601c1.85,0.077,7.044,0.747,10.38,5.629 C44.459,19.519,38.531,22.971,38.593,30.15 M31.453,9.062C33.435,6.662,34.769,3.323,34.405,0c-2.857,0.115-6.312,1.904-8.36,4.302 c-1.837,2.123-3.445,5.521-3.011,8.778C26.218,13.326,29.47,11.461,31.453,9.062"/>
</svg>
